<svg width="1070" height="928" viewBox="0 0 1070 928" fill="none" xmlns="http://www.w3.org/2000/svg">
<g clip-path="url(#clip0_212_192)">
<path d="M294.043 691.295C287.619 691.295 282.351 689.451 278.308 685.761C274.264 682.072 272.231 677.187 272.231 671.129C272.231 666.643 273.432 662.953 275.812 660.037C278.215 657.121 281.265 655.675 285.008 655.675C288.544 655.675 291.039 656.796 292.495 659.04C293.95 661.283 295.152 663.851 296.076 666.767C297 669.684 298.109 672.251 299.357 674.494C300.605 676.738 302.569 677.86 305.272 677.86C309.223 677.86 312.227 675.392 314.306 670.456C316.386 665.521 317.426 658.566 317.426 649.617V399.228C317.426 394.517 316.756 391.376 315.392 389.83C314.029 388.26 311.187 387.039 306.82 386.141L299.657 384.795C296.954 384.122 295.614 382.776 295.614 380.757C295.614 378.289 297.162 377.068 300.281 377.068H356.682C359.801 377.068 361.349 378.314 361.349 380.757C361.349 382.776 359.986 384.122 357.306 384.795L350.143 386.141C345.776 387.039 342.934 388.285 341.571 389.83C340.208 391.401 339.538 394.542 339.538 399.228V604.251C339.538 631.147 335.494 652.359 327.384 667.939C319.274 683.518 308.16 691.295 294.043 691.295Z" fill="#231F20" stroke="white" stroke-width="0.5"/>
<path d="M450.445 622.073C439.239 622.073 429.303 619.207 420.685 613.499C412.066 607.79 405.366 599.839 400.583 589.644C395.8 579.449 393.42 567.733 393.42 554.522V399.228C393.42 394.517 392.75 391.376 391.387 389.83C390.024 388.26 387.182 387.039 382.815 386.141L375.652 384.795C372.949 384.122 371.608 382.776 371.608 380.757C371.608 378.289 373.156 377.068 376.276 377.068H433.3C436.42 377.068 437.968 378.414 437.968 381.106C437.968 383.125 436.813 384.346 434.548 384.795L426.138 386.141C421.979 386.814 419.183 388.061 417.727 389.83C416.272 391.625 415.555 394.866 415.555 399.577V554.871C415.555 571.896 419.091 585.107 426.138 594.529C433.185 603.927 443.074 608.638 455.736 608.638C468.398 608.638 478.588 603.927 485.635 594.529C492.682 585.107 496.217 571.896 496.217 554.871V406.307C496.217 394.218 492.682 387.487 485.635 386.141L477.224 384.795C474.937 384.346 473.805 383.125 473.805 381.106C473.805 378.414 475.353 377.068 478.472 377.068H523.343C526.463 377.068 528.011 378.314 528.011 380.757C528.011 382.776 526.647 384.122 523.967 384.795L516.804 386.141C509.734 387.487 506.222 394.093 506.222 405.983V554.547C506.222 574.937 501.139 591.289 490.949 603.628C480.76 615.941 467.266 622.123 450.445 622.123V622.073Z" fill="#231F20" stroke="white" stroke-width="0.5"/>
<path d="M665.397 622.073C662.07 622.073 659.274 619.381 656.986 613.997L572.558 416.377C571.934 414.807 571.149 414.134 570.225 414.358C569.3 414.583 568.815 415.605 568.815 417.375V590.142C568.815 596.424 569.809 601.185 571.773 604.425C573.737 607.666 577.318 609.76 582.517 610.632L586.56 611.305C589.264 611.529 590.604 612.875 590.604 615.343C590.604 617.811 589.056 619.032 585.936 619.032H541.389C538.269 619.032 536.721 617.811 536.721 615.343C536.721 612.875 538.061 611.529 540.765 611.305L544.808 610.632C550.215 609.735 553.935 607.666 556.015 604.425C558.094 601.185 559.134 596.424 559.134 590.142V399.228C559.134 394.517 558.464 391.376 557.101 389.83C555.737 388.26 552.687 387.039 547.905 386.141L540.742 384.795C538.038 384.122 536.698 382.776 536.698 380.757C536.698 378.289 538.246 377.068 541.366 377.068H574.707C579.906 377.068 583.533 379.536 585.613 384.471L659.135 558.909C659.759 560.255 660.545 560.803 661.469 560.579C662.393 560.355 662.878 559.582 662.878 558.236V405.983C662.878 398.829 661.723 393.844 659.459 391.027C657.171 388.235 654.26 386.49 650.725 385.817L645.11 384.82C642.407 384.147 641.067 382.801 641.067 380.782C641.067 378.314 642.615 377.093 645.734 377.093H690.282C693.401 377.093 694.949 378.339 694.949 380.782C694.949 383.225 693.586 384.596 690.905 384.82L686.862 385.493C681.455 386.39 677.712 388.235 675.656 391.027C673.576 393.819 672.536 398.804 672.536 405.983V611.355C672.536 615.393 671.866 618.185 670.503 619.755C669.14 621.326 667.43 622.098 665.374 622.098L665.397 622.073Z" fill="#231F20" stroke="white" stroke-width="0.5"/>
<path d="M786.91 622.073C770.089 622.073 755.856 616.913 744.234 606.619C732.588 596.324 723.762 581.792 717.755 563.097C711.724 544.401 708.72 522.266 708.72 496.716C708.72 471.166 712.255 450.502 719.303 432.006C726.35 413.511 736.077 399.178 748.439 388.983C760.8 378.788 774.964 373.678 790.953 373.678C799.063 373.678 806.434 374.525 813.065 376.195C819.72 377.865 825.519 380.059 830.51 382.751C833.213 384.321 834.554 386.665 834.554 389.805L835.478 440.88C835.478 444.694 834.23 446.589 831.735 446.589C829.447 446.589 827.992 445.143 827.368 442.226L824.872 432.156C820.297 413.561 815.099 400.798 809.299 393.844C803.477 386.914 795.482 383.424 785.315 383.424C770.158 383.424 757.635 393.121 747.769 412.489C737.903 431.882 732.981 459.949 732.981 496.691C732.981 533.434 738.018 563.421 748.092 583.237C758.166 603.079 771.082 612.975 786.887 612.975C795.413 612.975 801.836 610.956 806.203 606.918C810.57 602.88 812.742 595.377 812.742 584.409V510.8C812.742 506.089 812.072 502.848 810.709 501.054C809.345 499.259 806.503 498.137 802.136 497.689L789.983 496.343C787.279 496.118 785.939 494.772 785.939 492.304C785.939 489.837 787.487 488.615 790.607 488.615H847.631C850.751 488.615 852.299 489.961 852.299 492.653C852.299 494.672 851.144 495.894 848.879 496.343L844.212 497.016C839.637 497.689 836.933 499.035 836.102 501.054C835.27 503.073 834.854 506.438 834.854 511.124V602.207C834.854 604.674 834.23 606.644 832.982 608.089C831.735 609.56 829.563 611.18 826.444 612.975C821.453 615.667 815.746 617.836 809.299 619.531C802.853 621.201 795.389 622.048 786.864 622.048L786.91 622.073Z" fill="#231F20" stroke="white" stroke-width="0.5"/>
<path d="M363.545 696.704C363.545 697.901 364.561 698.574 365.231 698.574C365.74 698.574 365.74 699.845 365.231 699.845H358.854C358.323 699.845 358.323 698.574 358.854 698.574C359.478 698.574 360.495 697.901 360.495 696.704V670.681C360.495 669.185 360.217 668.961 359.27 669.011C358.785 669.135 358.646 667.789 359.247 667.739C360.264 667.714 362.043 667.066 362.944 666.269C363.013 666.194 363.059 666.194 363.129 666.194C363.36 666.194 363.545 666.443 363.545 666.767V696.679V696.704ZM360.009 660.66C360.009 659.489 360.541 657.719 361.881 657.719C362.389 657.719 362.875 658.068 363.221 658.566C363.545 659.115 363.753 659.838 363.753 660.66C363.753 661.483 363.521 662.206 363.221 662.754C362.875 663.277 362.389 663.602 361.881 663.602C360.541 663.602 360.009 661.832 360.009 660.66Z" fill="white"/>
<path d="M375.813 698.549C375.975 698.549 376.091 698.549 376.252 698.524C378.54 698.175 380.85 694.56 380.203 690.796C379.626 687.307 376.252 685.462 374.312 684.266C371.1 682.272 367.588 679.654 368.35 673.123C368.882 669.459 371.238 666.318 374.843 666.318C377.338 666.318 380.527 667.988 381.659 671.553C382.191 673.323 381.174 674.769 380.203 674.769C379.603 674.769 378.979 674.195 378.748 672.774C378.008 669.584 376.275 667.465 374.08 667.639C372.209 667.639 370.407 670.282 370.43 673.273C370.453 677.61 373.48 679.255 375.629 680.552C378.725 682.396 382.375 684.615 382.63 689.874C382.861 695.209 379.372 699.172 376.299 699.72C376.021 699.795 375.698 699.82 375.305 699.82C372.81 699.82 368.743 698.349 367.957 694.86C367.472 692.915 368.651 691.395 369.76 691.395C370.384 691.395 371.031 691.868 371.354 693.04C372.14 696.106 373.665 698.499 375.79 698.499L375.813 698.549Z" fill="white"/>
<path d="M414.909 699.845H410.195V694.785C408.508 697.178 406.013 699.546 403.102 699.546C399.959 699.546 397.556 696.704 397.625 692.716C397.741 684.964 405.158 678.433 410.241 675.616V672.75C410.149 670.157 409.479 667.515 406.637 667.515C404.534 667.515 403.125 669.908 403.148 672.002C402.986 673.473 402.108 674.146 401.276 674.146C400.26 674.146 399.289 673.149 399.589 671.454C400.26 668.163 403.795 666.294 406.66 666.269C410.403 666.244 413.083 668.313 413.245 672.924V696.729C413.245 697.926 414.262 698.599 414.932 698.599C415.44 698.599 415.44 699.87 414.932 699.87L414.909 699.845ZM410.218 677.037C406.059 679.729 400.745 685.512 400.514 692.118C400.421 694.885 402.154 696.879 404.511 696.879C406.868 696.879 408.786 694.96 410.218 693.115V677.037Z" fill="white"/>
<path d="M436.997 699.845H430.62C430.389 699.845 430.204 699.571 430.204 699.222C430.204 698.873 430.389 698.574 430.62 698.574C431.244 698.574 432.261 697.901 432.261 696.704V654.852C432.261 653.581 431.244 653.008 430.574 652.933C430.343 652.933 430.204 652.634 430.204 652.285C430.204 651.936 430.389 651.711 430.62 651.711H441.387C447.279 651.711 452.062 657.121 452.201 666.817C452.362 677.012 447.51 682.446 441.387 682.272H435.31V696.704C435.31 697.901 436.327 698.574 436.997 698.574C437.228 698.574 437.367 698.873 437.367 699.222C437.367 699.571 437.205 699.845 436.997 699.845ZM435.31 652.933V681H440.324C445.939 680.926 449.22 675.367 449.174 666.643C449.151 658.566 445.315 652.933 440.209 652.933H435.334H435.31Z" fill="white"/>
<path d="M459.595 696.704C459.595 697.901 460.612 698.574 461.235 698.574C461.767 698.574 461.767 699.845 461.235 699.845H454.858C454.35 699.845 454.35 698.574 454.858 698.574C455.528 698.574 456.545 697.901 456.545 696.704V670.681C456.545 670.107 456.522 669.609 456.36 669.385C456.198 669.11 455.875 668.986 455.274 669.011C454.789 669.11 454.673 667.789 455.251 667.739C456.245 667.739 458.093 667.017 458.948 666.269C459.017 666.194 459.11 666.169 459.179 666.169C459.41 666.169 459.595 666.443 459.595 666.792V673.497C460.82 670.033 463.407 666.144 467.174 666.144C469.161 666.144 470.917 667.341 471.009 669.808C471.032 671.279 470.247 672.127 469.369 672.127C468.606 672.127 467.774 671.454 467.405 669.858C467.15 668.761 466.319 668.388 465.556 668.388C462.483 668.388 460.196 673.896 459.595 676.514V696.679V696.704Z" fill="white"/>
<path d="M503.519 683.019C503.519 693.04 496.726 699.845 487.576 699.845C478.426 699.845 471.91 692.791 471.91 683.019C471.91 673.248 478.495 666.194 487.576 666.194C496.656 666.194 503.519 673.273 503.519 683.019ZM500.469 683.019C500.469 673.074 494.253 667.44 487.576 667.44C480.898 667.44 474.937 673.148 474.937 683.019C474.937 692.89 480.991 698.574 487.576 698.574C494.161 698.574 500.469 692.965 500.469 683.019Z" fill="white"/>
<path d="M528.242 699.845H523.551V697.153C521.61 699.097 519.485 699.92 517.405 699.845C511.421 699.571 506.846 692.143 507.008 682.67C507.192 673.398 511.767 666.468 517.567 666.468C519.924 666.468 521.888 667.565 523.551 669.26V656.173C523.551 655.6 523.528 655.101 523.366 654.877C523.205 654.603 522.881 654.478 522.327 654.503C521.818 654.603 521.703 653.307 522.257 653.282C523.251 653.257 525.099 652.534 526 651.786C526.07 651.711 526.116 651.711 526.185 651.711C526.416 651.711 526.601 651.961 526.601 652.335V696.704C526.601 697.901 527.618 698.574 528.242 698.574C528.773 698.574 528.773 699.845 528.242 699.845ZM523.551 670.855C522.28 669.409 520.64 668.313 518.745 668.313C513.801 668.313 510.196 675.143 510.058 682.646C509.896 690.373 513.223 698.075 518.399 698.3C520.109 698.374 521.888 697.552 523.574 695.607V670.855H523.551Z" fill="white"/>
<path d="M532.539 670.606C532.562 669.11 532.262 668.886 531.314 668.936C530.806 669.036 530.714 667.714 531.291 667.665C532.331 667.64 534.087 667.017 534.988 666.194C535.058 666.119 535.104 666.094 535.173 666.094C535.404 666.094 535.589 666.368 535.589 666.717V688.827C535.589 693.339 537.022 697.552 540.187 697.552C543.353 697.552 545.501 693.788 546.495 689.476V670.681C546.495 670.107 546.426 669.609 546.31 669.385C546.148 669.11 545.802 668.986 545.224 669.011C544.739 669.135 544.623 667.814 545.155 667.739C546.148 667.739 548.043 667.017 548.898 666.269C548.967 666.194 549.013 666.169 549.083 666.169C549.314 666.169 549.499 666.443 549.499 666.792V696.679C549.499 697.901 550.515 698.599 551.185 698.599C551.694 698.599 551.694 699.87 551.185 699.87H546.495V692.616C545.039 696.879 542.382 699.795 539.217 699.795C535.15 699.795 532.562 694.91 532.562 688.678V670.631L532.539 670.606Z" fill="white"/>
<path d="M569.947 667.44C563.2 667.54 556.893 672.899 556.893 683.144C556.893 691.669 563.131 698.574 569.762 698.599C573.529 698.624 577.549 696.754 580.021 693.638C580.137 693.464 580.299 693.389 580.437 693.389C580.853 693.389 581.269 693.962 580.922 694.461C578.127 697.951 574.037 699.82 569.809 699.87C560.659 699.97 553.935 692.94 553.866 683.019C553.889 672.824 560.705 666.269 569.97 666.244C573.875 666.244 579.097 668.113 581.662 671.603C583.788 674.469 582.263 676.389 580.668 676.389C579.675 676.389 578.704 675.716 578.427 674.121C577.572 670.057 574.753 667.565 569.97 667.465L569.947 667.44Z" fill="white"/>
<path d="M585.382 667.465C584.851 667.465 584.851 666.194 585.382 666.194H586.607V660.336C586.607 658.84 586.283 658.616 585.336 658.666C584.828 658.766 584.735 657.469 585.313 657.444C586.306 657.419 588.132 656.722 589.01 655.949C589.079 655.924 589.125 655.874 589.195 655.874C589.379 655.874 589.61 656.123 589.61 656.497V666.219H593.816C594.347 666.219 594.347 667.49 593.816 667.49H589.61V691.843C589.61 695.782 590.65 697.527 591.898 697.527C592.984 697.527 594.209 696.231 595.11 693.937C595.202 693.688 595.341 693.588 595.456 693.588C595.71 693.588 595.965 694.037 595.803 694.511C594.786 697.751 592.499 699.87 590.442 699.87C588.386 699.87 586.607 697.726 586.607 692.342V667.49H585.382V667.465Z" fill="white"/>
<path d="M620.179 651.711C629.075 651.786 634.851 662.206 634.851 675.816C634.851 689.426 629.283 699.845 620.526 699.845H611.214C610.983 699.845 610.844 699.571 610.844 699.222C610.844 698.873 611.006 698.574 611.214 698.574C611.884 698.574 612.901 697.901 612.901 696.704V654.852C612.901 653.656 611.884 652.933 611.214 652.933C610.983 652.933 610.844 652.659 610.844 652.31C610.844 651.961 611.006 651.687 611.214 651.687H620.179V651.711ZM620.11 698.574C627.942 698.574 631.593 686.684 631.593 675.791C631.593 664.898 628.012 652.908 620.156 652.908H615.951V698.549H620.133L620.11 698.574Z" fill="white"/>
<path d="M641.367 682.097C640.951 689.251 645.572 698.574 654.144 698.574C658.604 698.549 662.601 696.929 665.374 692.965C665.489 692.791 665.651 692.691 665.813 692.691C666.229 692.691 666.645 693.264 666.298 693.713C663.317 698.025 659.02 699.795 654.168 699.845C645.41 699.92 638.386 692.467 638.363 683.019C638.363 673.797 644.948 666.194 653.613 666.194C662.278 666.194 668.886 673.298 668.886 682.097H641.413H641.367ZM641.459 680.876H665.79C665.097 673.672 660.683 667.44 653.567 667.44C646.45 667.44 642.153 673.622 641.459 680.876Z" fill="white"/>
<path d="M680.3 698.549C680.462 698.549 680.577 698.549 680.739 698.524C683.027 698.175 685.337 694.56 684.69 690.796C684.113 687.307 680.739 685.462 678.798 684.266C675.587 682.272 672.075 679.654 672.837 673.123C673.369 669.459 675.725 666.318 679.33 666.318C681.825 666.318 685.014 667.988 686.146 671.553C686.677 673.323 685.661 674.769 684.69 674.769C684.089 674.769 683.466 674.195 683.235 672.774C682.495 669.584 680.762 667.465 678.567 667.639C676.696 667.639 674.893 670.282 674.917 673.273C674.94 677.61 677.967 679.255 680.115 680.552C683.212 682.396 686.862 684.615 687.116 689.874C687.347 695.209 683.859 699.172 680.785 699.72C680.508 699.795 680.185 699.82 679.792 699.82C677.296 699.82 673.23 698.349 672.444 694.86C671.959 692.915 673.137 691.395 674.247 691.395C674.87 691.395 675.517 691.868 675.841 693.04C676.626 696.106 678.151 698.499 680.277 698.499L680.3 698.549Z" fill="white"/>
<path d="M694.487 696.704C694.487 697.901 695.504 698.574 696.174 698.574C696.682 698.574 696.682 699.845 696.174 699.845H689.797C689.265 699.845 689.265 698.574 689.797 698.574C690.42 698.574 691.437 697.901 691.437 696.704V670.681C691.437 669.185 691.16 668.961 690.212 669.011C689.727 669.135 689.589 667.789 690.189 667.739C691.206 667.714 692.985 667.066 693.886 666.269C693.956 666.194 694.002 666.194 694.071 666.194C694.302 666.194 694.487 666.443 694.487 666.767V696.679V696.704ZM690.929 660.66C690.929 659.489 691.46 657.719 692.8 657.719C693.309 657.719 693.794 658.068 694.14 658.566C694.464 659.115 694.672 659.838 694.672 660.66C694.672 661.483 694.441 662.206 694.14 662.754C693.794 663.277 693.309 663.602 692.8 663.602C691.46 663.602 690.929 661.832 690.929 660.66Z" fill="white"/>
<path d="M718.609 664.873C716.969 664.873 715.513 665.346 715.005 666.742C720.319 668.462 724.27 673.398 724.27 679.505C724.27 686.858 718.239 692.741 711.562 692.741C707.865 692.741 704.561 691.27 702.551 688.902C700.841 690.996 701.188 694.062 703.591 695.084C705.277 695.807 708.096 696.006 711.007 696.206C714.265 696.405 717.731 696.654 720.111 697.676C723.508 699.122 725.333 701.989 724.386 705.803C722.907 711.885 716.437 714.278 711.192 714.278C708.142 714.278 704.792 713.63 702.343 712.259C697.906 709.716 697.468 704.182 702.158 702.064C702.25 702.039 702.343 701.989 702.435 701.989C702.944 701.989 703.198 702.811 702.62 703.16C701.003 705.454 701.419 708.943 704.307 710.888C705.947 711.984 708.212 712.882 711.192 713.006C715.12 713.006 720.827 711.262 722.006 706.575C722.699 703.634 720.897 701.59 718.424 700.693C716.46 699.97 713.896 699.795 711.377 699.671C707.703 699.421 704.099 699.222 702.019 697.278C699.431 694.885 699.547 690.622 701.765 687.955C699.917 685.662 698.808 682.521 698.808 679.48C698.808 672.002 704.676 666.244 711.516 666.244C712.093 666.244 712.648 666.318 713.249 666.368C715.305 664.075 718.979 661.657 722.006 661.657C725.61 661.682 725.356 665.496 722.768 665.496C722.491 665.496 722.191 665.471 721.844 665.371C720.804 665.072 719.626 664.848 718.586 664.848L718.609 664.873ZM711.793 667.54C705.647 667.54 701.881 673.448 701.881 679.43C701.881 686.709 706.848 691.47 711.539 691.47C716.229 691.47 721.197 686.684 721.197 679.53C721.197 673.547 717.847 667.54 711.793 667.54Z" fill="white"/>
<path d="M732.149 696.704C732.149 697.901 733.166 698.574 733.79 698.574C734.321 698.574 734.321 699.845 733.79 699.845H727.412C726.904 699.845 726.904 698.574 727.412 698.574C728.083 698.574 729.099 697.901 729.099 696.704V670.755C729.099 669.26 728.776 669.035 727.875 669.085C727.343 669.16 727.274 667.914 727.782 667.864C728.868 667.789 730.601 667.191 731.548 666.368C731.618 666.343 731.664 666.293 731.733 666.293C731.918 666.293 732.149 666.543 732.149 666.917V673.448C733.697 668.961 736.354 666.368 739.589 666.368C743.586 666.368 746.059 671.179 746.059 677.137V696.729C746.059 697.926 747.075 698.599 747.745 698.599C748.254 698.599 748.254 699.87 747.745 699.87H741.368C740.837 699.87 740.837 698.599 741.368 698.599C741.992 698.599 743.009 697.926 743.009 696.729V677.137C743.032 672.725 741.738 668.337 738.549 668.337C735.384 668.462 733.166 671.952 732.149 676.513V696.729V696.704Z" fill="white"/>
<path d="M753.406 682.097C752.99 689.251 757.611 698.574 766.184 698.574C770.643 698.549 774.64 696.929 777.413 692.965C777.528 692.791 777.69 692.691 777.852 692.691C778.268 692.691 778.684 693.264 778.337 693.713C775.356 698.025 771.059 699.795 766.207 699.845C757.45 699.92 750.425 692.467 750.402 683.019C750.402 673.797 756.987 666.194 765.652 666.194C774.317 666.194 780.925 673.298 780.925 682.097H753.452H753.406ZM753.498 680.876H777.829C777.136 673.672 772.722 667.44 765.606 667.44C758.489 667.44 754.192 673.622 753.498 680.876Z" fill="white"/>
<path d="M788.226 696.704C788.226 697.901 789.243 698.574 789.867 698.574C790.398 698.574 790.398 699.845 789.867 699.845H783.49C782.981 699.845 782.981 698.574 783.49 698.574C784.16 698.574 785.176 697.901 785.176 696.704V670.681C785.176 670.107 785.153 669.609 784.991 669.385C784.83 669.11 784.506 668.986 783.906 669.011C783.42 669.11 783.305 667.789 783.882 667.739C784.876 667.739 786.724 667.017 787.579 666.269C787.649 666.194 787.741 666.169 787.81 666.169C788.041 666.169 788.226 666.443 788.226 666.792V673.497C789.451 670.033 792.039 666.144 795.805 666.144C797.792 666.144 799.548 667.341 799.64 669.808C799.664 671.279 798.878 672.127 798 672.127C797.238 672.127 796.406 671.454 796.036 669.858C795.782 668.761 794.95 668.388 794.188 668.388C791.115 668.388 788.827 673.896 788.226 676.514V696.679V696.704Z" fill="white"/>
<path d="M366.41 754.559C366.571 754.559 366.687 754.559 366.849 754.535C369.136 754.186 371.447 750.571 370.8 746.807C370.222 743.317 366.849 741.473 364.908 740.276C361.696 738.282 358.184 735.665 358.946 729.134C359.478 725.47 361.835 722.329 365.439 722.329C367.935 722.329 371.123 723.999 372.255 727.564C372.787 729.334 371.77 730.779 370.8 730.779C370.199 730.779 369.575 730.206 369.344 728.785C368.605 725.595 366.872 723.476 364.677 723.65C362.805 723.65 361.003 726.292 361.026 729.284C361.049 733.621 364.076 735.266 366.225 736.562C369.321 738.407 372.972 740.625 373.226 745.885C373.457 751.219 369.968 755.183 366.895 755.731C366.618 755.806 366.294 755.831 365.901 755.831C363.406 755.831 359.339 754.36 358.554 750.87C358.068 748.926 359.247 747.405 360.356 747.405C360.98 747.405 361.627 747.879 361.95 749.051C362.736 752.117 364.261 754.51 366.386 754.51L366.41 754.559Z" fill="white"/>
<path d="M380.596 752.715C380.596 753.912 381.636 754.585 382.283 754.585C382.814 754.585 382.814 755.856 382.283 755.856H375.906C375.374 755.856 375.374 754.585 375.906 754.585C376.53 754.585 377.593 753.912 377.593 752.715V712.209C377.593 710.713 377.269 710.489 376.322 710.539C375.813 710.614 375.744 709.367 376.252 709.317C377.338 709.243 379.071 708.644 379.996 707.822C380.065 707.797 380.111 707.747 380.18 707.747C380.365 707.747 380.596 707.996 380.596 708.37V729.458C382.144 724.972 384.802 722.379 388.083 722.379C392.034 722.379 394.552 727.19 394.552 733.147V752.74C394.552 753.936 395.569 754.61 396.193 754.61C396.724 754.61 396.724 755.881 396.193 755.881H389.816C389.307 755.881 389.307 754.61 389.816 754.61C390.486 754.61 391.502 753.936 391.502 752.74C391.502 746.209 391.479 739.678 391.502 733.147C391.502 728.735 390.231 724.348 387.043 724.348C383.831 724.473 381.659 727.963 380.619 732.524V752.74L380.596 752.715Z" fill="white"/>
<path d="M401.877 738.108C401.461 745.262 406.082 754.584 414.654 754.584C419.114 754.56 423.111 752.939 425.884 748.976C425.999 748.801 426.161 748.702 426.323 748.702C426.738 748.702 427.154 749.275 426.808 749.724C423.827 754.036 419.529 755.806 414.677 755.856C405.92 755.931 398.896 748.477 398.873 739.03C398.873 729.807 405.458 722.205 414.123 722.205C422.787 722.205 429.396 729.309 429.396 738.108H401.923H401.877ZM401.969 736.886H426.299C425.606 729.683 421.193 723.451 414.077 723.451C406.96 723.451 402.662 729.633 401.969 736.886Z" fill="white"/>
<path d="M461.559 755.855H456.845V750.795C455.159 753.188 452.663 755.556 449.752 755.556C446.61 755.556 444.207 752.715 444.276 748.726C444.391 740.974 451.808 734.443 456.892 731.627V728.76C456.799 726.168 456.129 723.525 453.287 723.525C451.184 723.525 449.775 725.918 449.798 728.012C449.636 729.483 448.758 730.156 447.927 730.156C446.91 730.156 445.939 729.159 446.24 727.464C446.91 724.173 450.445 722.304 453.31 722.279C457.053 722.254 459.734 724.323 459.895 728.934V752.74C459.895 753.936 460.912 754.609 461.582 754.609C462.09 754.609 462.09 755.88 461.582 755.88L461.559 755.855ZM456.868 733.047C452.709 735.739 447.395 741.523 447.164 748.128C447.072 750.895 448.805 752.889 451.161 752.889C453.518 752.889 455.436 750.97 456.868 749.125V733.047Z" fill="white"/>
<path d="M469.276 752.715C469.276 753.912 470.293 754.585 470.917 754.585C471.448 754.585 471.448 755.856 470.917 755.856H464.586C464.054 755.856 464.054 754.585 464.586 754.585C465.209 754.585 466.226 753.912 466.226 752.715V712.209C466.226 711.087 466.203 710.539 465.001 710.539C464.493 710.663 464.378 709.342 464.932 709.317C465.949 709.293 467.774 708.595 468.675 707.822C468.745 707.797 468.791 707.747 468.86 707.747C469.045 707.747 469.276 707.996 469.276 708.37V752.74V752.715Z" fill="white"/>
<path d="M481.522 754.559C481.684 754.559 481.799 754.559 481.961 754.535C484.248 754.186 486.559 750.571 485.912 746.807C485.334 743.317 481.961 741.473 480.02 740.276C476.808 738.282 473.296 735.665 474.059 729.134C474.59 725.47 476.947 722.329 480.551 722.329C483.047 722.329 486.235 723.999 487.368 727.564C487.899 729.334 486.882 730.779 485.912 730.779C485.311 730.779 484.687 730.206 484.456 728.785C483.717 725.595 481.984 723.476 479.789 723.65C477.917 723.65 476.115 726.292 476.138 729.284C476.161 733.621 479.188 735.266 481.337 736.562C484.433 738.407 488.084 740.625 488.338 745.885C488.569 751.219 485.08 755.183 482.007 755.731C481.73 755.806 481.406 755.831 481.014 755.831C478.518 755.831 474.452 754.36 473.666 750.87C473.181 748.926 474.359 747.405 475.468 747.405C476.092 747.405 476.739 747.879 477.062 749.051C477.848 752.117 479.373 754.51 481.499 754.51L481.522 754.559Z" fill="white"/>
<path d="M523.505 739.03C523.505 749.051 516.712 755.856 507.562 755.856C498.412 755.856 491.896 748.801 491.896 739.03C491.896 729.259 498.482 722.205 507.562 722.205C516.643 722.205 523.505 729.284 523.505 739.03ZM520.455 739.03C520.455 729.084 514.24 723.451 507.562 723.451C500.885 723.451 494.923 729.159 494.923 739.03C494.923 748.901 500.977 754.584 507.562 754.584C514.147 754.584 520.455 748.976 520.455 739.03Z" fill="white"/>
<path d="M559.642 755.856H554.952V753.164C553.011 755.108 550.885 755.931 548.806 755.856C542.821 755.582 538.246 748.153 538.408 738.681C538.593 729.408 543.168 722.479 548.967 722.479C551.324 722.479 553.288 723.576 554.952 725.271V712.184C554.952 711.611 554.929 711.112 554.767 710.888C554.605 710.614 554.282 710.489 553.727 710.514C553.219 710.614 553.103 709.317 553.658 709.292C554.651 709.268 556.5 708.545 557.401 707.797C557.47 707.722 557.516 707.722 557.586 707.722C557.817 707.722 558.002 707.971 558.002 708.345V752.715C558.002 753.912 559.018 754.585 559.642 754.585C560.174 754.585 560.174 755.856 559.642 755.856ZM554.952 726.866C553.681 725.42 552.04 724.323 550.146 724.323C545.201 724.323 541.597 731.153 541.458 738.656C541.296 746.384 544.623 754.086 549.799 754.31C551.509 754.385 553.288 753.563 554.975 751.618V726.866H554.952Z" fill="white"/>
<path d="M593.908 739.03C593.908 749.051 587.115 755.856 577.965 755.856C568.815 755.856 562.299 748.801 562.299 739.03C562.299 729.259 568.884 722.205 577.965 722.205C587.045 722.205 593.908 729.284 593.908 739.03ZM590.858 739.03C590.858 729.084 584.642 723.451 577.965 723.451C571.287 723.451 565.326 729.159 565.326 739.03C565.326 748.901 571.38 754.584 577.965 754.584C584.55 754.584 590.858 748.976 590.858 739.03Z" fill="white"/>
<path d="M600.424 738.108C600.008 745.262 604.629 754.584 613.201 754.584C617.661 754.56 621.658 752.939 624.43 748.976C624.546 748.801 624.708 748.702 624.869 748.702C625.285 748.702 625.701 749.275 625.355 749.724C622.374 754.036 618.076 755.806 613.224 755.856C604.467 755.931 597.443 748.477 597.42 739.03C597.42 729.807 604.005 722.205 612.67 722.205C621.334 722.205 627.942 729.309 627.942 738.108H600.47H600.424ZM600.516 736.886H624.846C624.153 729.683 619.74 723.451 612.623 723.451C605.507 723.451 601.209 729.633 600.516 736.886Z" fill="white"/>
<path d="M639.333 754.559C639.495 754.559 639.611 754.559 639.772 754.535C642.06 754.186 644.37 750.571 643.724 746.807C643.146 743.317 639.772 741.473 637.832 740.276C634.62 738.282 631.108 735.665 631.87 729.134C632.402 725.47 634.759 722.329 638.363 722.329C640.858 722.329 644.047 723.999 645.179 727.564C645.711 729.334 644.694 730.779 643.724 730.779C643.123 730.779 642.499 730.206 642.268 728.785C641.528 725.595 639.796 723.476 637.601 723.65C635.729 723.65 633.927 726.292 633.95 729.284C633.973 733.621 637 735.266 639.149 736.562C642.245 738.407 645.895 740.625 646.15 745.885C646.381 751.219 642.892 755.183 639.819 755.731C639.541 755.806 639.218 755.831 638.825 755.831C636.33 755.831 632.263 754.36 631.477 750.87C630.992 748.926 632.171 747.405 633.28 747.405C633.904 747.405 634.551 747.879 634.874 749.051C635.66 752.117 637.185 754.51 639.31 754.51L639.333 754.559Z" fill="white"/>
<path d="M406.798 771.883C383.438 771.883 360.679 807.08 360.679 821.787C360.679 825.625 362.227 828.093 365.809 828.093C375.351 828.093 386.442 815.206 401.692 795.539C401.946 795.19 403.379 794.492 404.488 794.492C404.95 794.492 405.273 794.642 405.273 795.115C405.273 795.389 405.135 795.738 404.811 796.162C404.095 797.134 390.278 817.375 365.508 854.665C365.116 855.014 364.607 855.214 363.891 855.214C361.95 855.214 358.9 853.942 358.9 852.422C358.9 851.873 359.039 851.375 359.547 850.677L381.012 823.257C381.151 823.108 381.197 823.033 381.197 822.983C381.197 822.759 380.874 822.759 380.874 822.759C377.5 826.124 369.644 831.284 363.683 831.284C357.26 831.284 354.464 827.495 354.464 821.762C354.464 804.413 380.596 769.341 411.881 769.341C416.872 769.341 420.176 770.737 420.176 773.479C420.176 774.675 419.021 776.146 415.902 778.09C414.354 773.603 410.98 771.858 406.821 771.858L406.798 771.883Z" fill="#E4A2B0"/>
<path d="M401.114 829.464C401.114 824.205 409.617 814.134 413.822 809.947C410.703 809.323 408.3 808.401 406.544 807.429C403.748 812.115 399.982 817.425 396.354 822.186C396.354 822.186 395.708 822.036 395.708 821.562C395.708 821.363 395.846 821.064 396.17 820.665L397.325 819.194C400.375 815.281 403.356 810.719 405.504 806.806C402.963 805.136 401.946 803.167 401.946 801.347C401.946 798.057 405.389 795.19 409.201 795.19C410.426 795.19 410.957 795.888 410.957 797.084C410.957 798.754 409.848 801.496 408.092 804.712C409.271 805.136 410.749 805.335 412.644 805.335C417.057 805.335 420.431 804.712 420.431 804.712C420.431 804.712 421.54 804.862 421.54 805.56C421.54 805.709 421.47 805.908 421.355 806.108C414.469 812.963 407.214 823.183 407.214 827.52C407.214 829.34 407.722 830.237 408.647 830.237C410.518 830.237 414.284 826.523 419.992 819.17C419.992 819.17 420.5 819.394 420.5 819.867C420.5 820.017 420.5 820.142 420.361 820.366C414.123 828.966 408.739 832.755 405.435 832.755C402.316 832.755 401.091 831.434 401.091 829.464H401.114ZM406.891 797.284C405.343 797.284 404.164 798.68 404.164 800.35C404.164 801.671 404.95 803.142 406.821 804.188C407.93 801.87 408.577 799.926 408.577 798.73C408.577 797.483 407.792 797.259 406.891 797.259V797.284Z" fill="#E4A2B0"/>
<path d="M434.41 832.755C432.33 832.755 431.105 831.209 431.105 828.417C431.105 826.598 431.614 824.23 432.861 821.762C432.861 821.538 432.723 821.413 432.538 821.413C432.399 821.413 432.284 821.488 432.03 821.762C430.412 823.507 422.487 831.758 417.358 831.758C414.885 831.758 413.799 830.437 413.799 828.268C413.799 819.942 430.343 799.577 447.141 799.577C449.151 799.577 449.729 800.126 449.729 800.898C449.729 802.219 447.857 803.989 447.534 803.989C447.395 803.989 447.464 801.546 444.414 801.546C433.116 801.546 420.223 819.593 420.223 824.504C420.223 825.277 420.546 825.75 421.262 825.75C426.461 825.75 433.647 817.774 436.628 814.409C438.823 811.816 443.906 805.31 445.454 805.161C445.847 805.086 446.355 805.011 446.956 805.011C448.111 805.011 449.22 805.211 449.22 805.784C449.22 805.934 449.151 805.983 449.082 806.133C448.62 806.756 447.326 808.102 446.032 809.623C442.658 813.461 436.166 821.089 436.166 827.47C436.166 829.29 436.674 830.187 437.598 830.187C439.47 830.187 443.236 826.473 448.943 819.12C448.943 819.12 449.451 819.344 449.451 819.818C449.451 819.967 449.451 820.092 449.313 820.316C443.074 828.916 437.691 832.705 434.386 832.705L434.41 832.755Z" fill="#E4A2B0"/>
<path d="M451.023 825.9C451.415 826.448 452.247 827.445 454.465 827.445C462.714 827.445 471.332 814.209 471.332 809.398C471.332 808.351 470.94 807.653 469.969 807.653C464.008 807.653 450.445 824.03 448.943 825.925C446.425 829.29 437.344 845.019 437.344 845.019C436.697 846.14 434.433 846.689 432.538 846.689C431.105 846.689 429.881 846.34 429.881 845.642C429.881 845.492 429.95 845.293 430.135 845.093C437.783 834.948 458.416 803.939 458.416 803.939C459.202 802.743 459.964 802.743 461.328 802.743C462.367 802.743 463.476 802.892 463.476 803.515C463.476 803.665 463.407 803.74 463.361 803.864L453.102 818.97C457.261 814.483 467.312 803.989 473.597 803.989C475.283 803.989 476.069 805.111 476.069 806.856C476.069 812.589 467.959 825.252 457.723 828.966H458.047C462.853 828.966 469.207 826.448 474.844 819.169C474.844 819.169 475.353 819.394 475.353 819.867C475.353 820.017 475.353 820.142 475.214 820.366C469.692 828.218 460.935 831.433 455.112 831.433C451.877 831.433 449.082 830.387 449.082 828.367C449.082 827.096 450.445 825.501 450.768 825.501L451.023 825.925V825.9Z" fill="#E4A2B0"/>
<path d="M499.244 806.457C499.244 806.183 499.105 806.033 498.782 806.033C496.957 806.033 492.682 808.276 487.622 812.34C482.885 816.128 475.561 826.548 471.148 830.337C470.639 830.835 469.715 831.035 468.953 831.035C467.659 831.035 466.804 830.112 466.804 828.517C474.128 820.615 481.268 810.894 488.015 801.571C486.513 801.92 484.965 802.12 483.417 802.269C482.446 802.269 480.69 801.721 480.69 800.026C480.69 799.527 480.944 799.128 481.476 799.128C482.123 799.203 483.232 799.278 484.272 799.278C486.282 799.278 488.292 799.004 490.233 798.655C502.04 782.477 512.876 768.418 522.673 768.418C524.429 768.418 525.215 769.316 525.215 770.787C525.215 777.093 511.143 793.944 493.375 800.1C490.579 804.238 487.992 808.002 485.981 810.744C485.981 810.744 485.727 811.093 485.727 811.293C485.727 811.442 485.797 811.517 486.051 811.517C492.936 806.208 498.967 803.466 502.017 803.466C503.311 803.466 504.281 803.665 504.281 804.662C504.281 805.36 503.773 806.556 502.456 808.301C498.62 813.411 491.18 823.282 491.18 827.545C491.18 829.364 491.689 830.262 492.613 830.262C494.484 830.262 498.251 826.548 503.958 819.194C503.958 819.194 504.466 819.419 504.466 819.892C504.466 820.042 504.466 820.167 504.327 820.391C497.835 829.34 491.943 833.477 488.5 833.477C486.49 833.477 485.311 832.082 485.311 829.489C485.311 823.133 499.267 808.974 499.267 806.457H499.244ZM520.917 770.687C514.424 770.687 503.981 784.746 495.478 797.059C510.843 791.451 522.396 776.968 522.396 772.207C522.396 771.235 521.934 770.662 520.894 770.662L520.917 770.687Z" fill="#E4A2B0"/>
<path d="M512.807 804.288C514.355 802.668 514.632 802.668 516.434 802.668C517.59 802.668 518.306 802.867 518.306 803.44C518.306 803.59 518.237 803.64 518.167 803.789C514.078 809.323 504.674 821.986 504.674 827.52C504.674 829.339 505.182 830.237 506.106 830.237C507.978 830.237 511.744 826.523 517.451 819.169C517.451 819.169 517.959 819.394 517.959 819.867C517.959 820.017 517.959 820.141 517.821 820.366C511.467 829.19 505.69 833.103 502.247 833.103C500.168 833.103 498.874 831.633 498.874 828.966C498.874 822.958 508.671 808.675 512.761 804.263L512.807 804.288ZM522.742 787.986C525.007 787.986 526.578 789.731 526.578 791.974C526.578 795.264 523.713 798.131 520.732 798.131C518.468 798.131 516.966 796.461 516.966 794.143C516.966 790.852 519.808 787.986 522.742 787.986Z" fill="#E4A2B0"/>
<path d="M517.682 823.881C517.682 827.096 519.184 829.265 522.927 829.265C526.67 829.265 530.644 826.822 533.44 824.08C534.734 822.759 535.982 821.064 537.461 819.169C537.461 819.169 537.969 819.394 537.969 819.867C537.969 820.017 537.969 820.142 537.83 820.366C536.467 822.26 535.173 823.856 533.879 825.326C529.859 829.813 524.152 832.754 519.669 832.754C514.031 832.754 511.767 830.087 511.767 826.398C511.767 816.951 526.231 800.3 537.461 800.3C540.511 800.3 541.804 801.696 541.804 803.665C541.804 807.504 536.559 813.262 529.027 813.262C527.155 813.262 526.37 812.564 526.37 811.716C526.37 810.744 527.41 809.473 529.027 808.7C529.027 808.7 529.096 810.669 533.509 810.669C536.236 810.669 538.315 807.18 538.315 804.712C538.315 803.316 537.669 802.269 536.167 802.269C527.086 802.269 517.682 815.979 517.682 823.905V823.881Z" fill="#E4A2B0"/>
<path d="M533.14 837.241C533.14 836.893 533.394 836.618 534.295 836.469C539.494 835.621 542.659 831.708 542.659 827.869C542.659 826.822 542.151 825.626 542.151 824.653C542.151 822.41 544.3 820.516 546.426 820.516C548.898 820.516 549.984 821.712 549.984 823.532C549.984 828.143 542.844 836.543 533.764 838.363C533.764 838.363 533.117 837.74 533.117 837.241H533.14Z" fill="#E4A2B0"/>
<path d="M566.227 831.483C566.227 831.483 567.521 833.727 570.063 833.727C584.596 833.727 602.688 797.483 602.688 779.71C602.688 773.977 600.817 770.113 596.265 770.113C581.084 770.113 567.775 796.137 567.775 810.769C567.775 819.244 571.01 822.534 575.239 822.534C582.887 822.534 593.723 811.467 593.723 800.624C593.723 799.851 593.931 799.502 594.231 799.502C594.74 799.502 595.918 800.424 595.918 800.823C595.918 807.952 585.729 824.055 574.892 824.055C566.921 824.055 563.732 819.02 563.732 811.941C563.732 795.638 580.853 768.543 596.103 768.543C604.467 768.543 607.771 773.802 607.771 781.355C607.771 800.873 585.59 835.795 570.155 835.795C566.851 835.795 564.91 834.823 564.91 832.929C564.91 832.007 566.019 831.458 566.204 831.458L566.227 831.483Z" fill="#A3ADEE"/>
<path d="M610.036 803.067C611.006 801.871 611.468 801.87 612.947 801.87C613.987 801.87 615.096 802.02 615.096 802.643C615.096 802.793 615.026 802.843 614.957 802.992C614.957 802.992 608.996 811.318 604.19 819.868C608.742 814.907 623.529 800.001 628.913 800.001C629.306 800.001 629.421 800.2 629.421 800.5C629.421 800.849 629.213 801.347 629.098 801.397C624.107 805.186 614.819 820.291 614.819 826.025C614.819 827.844 615.327 828.742 616.251 828.742C618.123 828.742 621.889 825.027 627.596 817.674C627.596 817.674 628.104 817.898 628.104 818.372C628.104 818.522 628.104 818.646 627.966 818.871C621.727 827.47 616.344 831.259 613.039 831.259C610.96 831.259 609.088 830.561 609.088 827.769C609.088 822.46 616.228 812.016 621.219 806.357C621.219 806.158 621.103 806.158 620.965 806.158C619.278 806.158 603.451 822.809 600.401 826.249C599.107 827.495 597.027 830.511 595.017 830.511C593.723 830.511 592.868 829.614 592.868 827.994L609.989 803.067H610.036Z" fill="#A3ADEE"/>
<path d="M649.361 798.156C644.81 802.992 639.703 807.953 634.828 812.439C631.778 818.173 629.768 823.283 629.768 826.149C629.768 827.769 630.415 828.742 631.847 828.742C633.719 828.742 637.485 825.027 643.192 817.674C643.192 817.674 643.7 817.898 643.7 818.372C643.7 818.522 643.7 818.646 643.562 818.871C637.323 827.47 631.94 831.259 628.636 831.259C625.331 831.259 623.76 829.589 623.76 826.772C623.76 820.69 630.576 809.423 638.548 798.929C636.723 799.079 634.782 799.203 632.841 799.278C631.87 799.278 629.929 799.203 629.929 797.533C629.929 797.035 630.184 796.636 630.715 796.636C633.834 796.636 637.138 796.561 640.581 796.362C649.477 785.17 659.066 775.573 661.931 775.573C663.479 775.573 664.195 776.196 664.195 777.392C664.195 780.608 658.95 787.687 651.88 795.439C662.716 794.392 673.876 792.722 683.419 790.953C685.036 790.678 688.294 789.831 688.479 789.831C688.872 789.831 689.126 789.906 689.126 790.105C689.126 791.227 688.294 793.246 687.439 793.595C686.585 793.944 676.21 796.112 649.361 798.156ZM643.215 798.655C640.812 802.145 638.548 805.784 636.538 809.373C640.235 806.158 644.139 802.244 647.698 798.306L643.215 798.655ZM645.017 796.063C646.704 795.988 648.391 795.788 650.147 795.639C656.432 788.435 661.238 781.854 661.238 780.159C661.238 779.96 661.168 779.81 660.914 779.81C657.864 779.81 651.325 787.089 645.017 796.038V796.063Z" fill="#A3ADEE"/>
<path d="M650.355 808.999C650.355 809.972 650.494 810.894 650.863 811.667C653.197 810.894 655.6 810.42 657.795 810.42C659.667 810.42 660.521 811.268 660.521 812.24C660.521 813.91 658.188 816.228 654.814 816.228C652.666 816.228 650.933 815.381 649.685 814.06C645.665 816.228 643.4 820.142 643.4 823.158C643.4 825.75 645.018 827.769 648.599 827.769C652.481 827.769 656.316 825.327 659.112 822.585C660.406 821.264 661.654 819.568 663.132 817.674C663.132 817.674 663.641 817.898 663.641 818.372C663.641 818.522 663.641 818.646 663.502 818.871C662.139 820.765 660.845 822.36 659.551 823.831C655.531 828.318 649.824 831.259 645.341 831.259C639.703 831.259 637.439 828.592 637.439 824.903C637.439 819.942 642.638 815.181 648.599 812.589C647.952 811.392 647.629 809.997 647.629 808.526C647.629 803.765 651.58 798.53 661.515 798.53C664.357 798.53 666.113 799.428 666.113 800.898C666.113 801.945 665.212 803.217 663.202 804.612C663.132 801.87 659.898 800.774 658.211 800.774C653.22 800.774 650.355 805.186 650.355 809.024V808.999ZM658.904 813.137C658.904 812.639 658.257 812.24 656.755 812.24C654.93 812.24 653.243 812.589 651.764 813.088C652.666 814.01 653.913 814.558 655.6 814.558C657.61 814.558 658.904 813.785 658.904 813.162V813.137Z" fill="#A3ADEE"/>
<path d="M666.899 827.969C666.899 822.709 675.402 812.639 679.607 808.451C676.488 807.828 674.085 806.906 672.329 805.933C669.533 810.62 665.767 815.929 662.139 820.69C662.139 820.69 661.492 820.54 661.492 820.067C661.492 819.867 661.631 819.568 661.954 819.17L663.11 817.699C666.159 813.785 669.14 809.224 671.289 805.31C668.747 803.64 667.731 801.671 667.731 799.851C667.731 796.561 671.173 793.694 674.986 793.694C676.21 793.694 676.742 794.392 676.742 795.589C676.742 797.259 675.633 800.001 673.877 803.216C675.055 803.64 676.534 803.84 678.429 803.84C682.842 803.84 686.215 803.216 686.215 803.216C686.215 803.216 687.324 803.366 687.324 804.064C687.324 804.213 687.255 804.413 687.139 804.612C680.254 811.467 672.999 821.687 672.999 826.024C672.999 827.844 673.507 828.741 674.431 828.741C676.303 828.741 680.069 825.027 685.776 817.674C685.776 817.674 686.285 817.898 686.285 818.372C686.285 818.521 686.285 818.646 686.146 818.87C679.907 827.47 674.524 831.259 671.22 831.259C668.1 831.259 666.876 829.938 666.876 827.969H666.899ZM672.675 795.788C671.127 795.788 669.949 797.184 669.949 798.854C669.949 800.175 670.734 801.646 672.606 802.693C673.715 800.375 674.362 798.43 674.362 797.234C674.362 795.963 673.576 795.763 672.675 795.763V795.788Z" fill="#A3ADEE"/>
<path d="M700.194 831.259C698.114 831.259 696.89 829.714 696.89 826.922C696.89 825.102 697.398 822.734 698.646 820.266C698.646 820.042 698.507 819.917 698.322 819.917C698.184 819.917 698.068 819.992 697.814 820.266C696.196 822.011 688.271 830.262 683.142 830.262C680.669 830.262 679.583 828.941 679.583 826.772C679.583 818.447 696.127 798.082 712.925 798.082C714.935 798.082 715.513 798.63 715.513 799.403C715.513 800.724 713.641 802.494 713.318 802.494C713.179 802.494 713.248 800.051 710.198 800.051C698.9 800.051 686.007 818.098 686.007 823.008C686.007 823.781 686.33 824.255 687.047 824.255C692.245 824.255 699.431 816.278 702.412 812.913C704.607 810.321 709.69 803.815 711.238 803.69C711.631 803.615 712.139 803.54 712.74 803.54C713.895 803.54 715.005 803.74 715.005 804.313C715.005 804.463 714.935 804.513 714.866 804.662C714.404 805.285 713.11 806.631 711.816 808.152C708.442 811.991 701.95 819.618 701.95 826C701.95 827.819 702.458 828.717 703.382 828.717C705.254 828.717 709.02 825.002 714.727 817.649C714.727 817.649 715.236 817.873 715.236 818.347C715.236 818.497 715.236 818.621 715.097 818.846C708.858 827.445 703.475 831.234 700.171 831.234L700.194 831.259Z" fill="#A3ADEE"/>
<path d="M715.005 822.385C715.005 825.601 716.507 827.769 720.25 827.769C723.993 827.769 727.967 825.326 730.763 822.584C732.057 821.263 733.305 819.568 734.783 817.674C734.783 817.674 735.292 817.898 735.292 818.372C735.292 818.521 735.292 818.646 735.153 818.87C733.79 820.765 732.496 822.36 731.202 823.831C727.182 828.318 721.474 831.259 716.992 831.259C711.354 831.259 709.09 828.592 709.09 824.903C709.09 815.455 723.554 798.804 734.783 798.804C737.833 798.804 739.127 800.2 739.127 802.169C739.127 806.008 733.882 811.766 726.35 811.766C724.478 811.766 723.693 811.068 723.693 810.221C723.693 809.249 724.732 807.977 726.35 807.205C726.35 807.205 726.419 809.174 730.832 809.174C733.559 809.174 735.638 805.684 735.638 803.216C735.638 801.82 734.991 800.773 733.489 800.773C724.409 800.773 715.005 814.483 715.005 822.41V822.385Z" fill="#A3ADEE"/>
<path d="M757.172 798.156C752.621 802.992 747.514 807.953 742.639 812.439C739.589 818.173 737.579 823.283 737.579 826.149C737.579 827.769 738.226 828.742 739.658 828.742C741.53 828.742 745.296 825.027 751.003 817.674C751.003 817.674 751.511 817.898 751.511 818.372C751.511 818.522 751.511 818.646 751.373 818.871C745.134 827.47 739.751 831.259 736.447 831.259C733.143 831.259 731.571 829.589 731.571 826.772C731.571 820.69 738.387 809.423 746.359 798.929C744.534 799.079 742.593 799.203 740.652 799.278C739.681 799.278 737.741 799.203 737.741 797.533C737.741 797.035 737.995 796.636 738.526 796.636C741.645 796.636 744.949 796.561 748.392 796.362C757.288 785.17 766.877 775.573 769.742 775.573C771.29 775.573 772.006 776.196 772.006 777.392C772.006 780.608 766.761 787.687 759.691 795.439C770.527 794.392 781.687 792.722 791.23 790.953C792.848 790.678 796.105 789.831 796.29 789.831C796.683 789.831 796.937 789.906 796.937 790.105C796.937 791.227 796.105 793.246 795.25 793.595C794.396 793.944 784.021 796.112 757.172 798.156ZM751.003 798.655C748.6 802.145 746.336 805.784 744.326 809.373C748.023 806.158 751.927 802.244 755.486 798.306L751.003 798.655ZM752.829 796.063C754.515 795.988 756.202 795.788 757.958 795.639C764.243 788.435 769.049 781.854 769.049 780.159C769.049 779.96 768.979 779.81 768.725 779.81C765.675 779.81 759.136 787.089 752.829 796.038V796.063Z" fill="#A3ADEE"/>
<path d="M759.899 802.792C761.447 801.172 761.724 801.172 763.527 801.172C764.682 801.172 765.398 801.372 765.398 801.945C765.398 802.094 765.329 802.144 765.26 802.294C761.17 807.828 751.766 820.49 751.766 826.024C751.766 827.844 752.274 828.741 753.198 828.741C755.07 828.741 758.836 825.027 764.543 817.674C764.543 817.674 765.052 817.898 765.052 818.372C765.052 818.521 765.052 818.646 764.913 818.87C758.559 827.694 752.782 831.608 749.34 831.608C747.26 831.608 745.966 830.137 745.966 827.47C745.966 821.463 755.763 807.179 759.853 802.767L759.899 802.792ZM769.834 786.465C772.099 786.465 773.67 788.21 773.67 790.454C773.67 793.744 770.805 796.61 767.824 796.61C765.56 796.61 764.058 794.94 764.058 792.622C764.058 789.332 766.9 786.465 769.834 786.465Z" fill="#A3ADEE"/>
<path d="M786.701 817.699C786.701 817.699 787.21 817.923 787.21 818.397C787.21 818.546 787.21 818.671 787.071 818.895C784.021 823.457 780.255 825.825 777.344 825.825C775.472 825.825 774.224 825.052 773.577 823.656C769.418 827.57 765.352 830.436 762.556 830.436C760.615 830.436 759.76 829.24 759.76 827.221C759.76 820.291 769.372 804.487 772.538 800.624C773.508 799.427 773.97 799.427 775.449 799.427C776.489 799.427 777.598 799.577 777.598 800.2C777.598 800.275 777.413 800.549 777.413 800.549C773.138 806.507 766.068 818.671 766.068 823.631C766.068 824.952 766.576 825.8 767.824 825.8C768.864 825.8 770.805 824.254 773.023 821.961C772.884 821.338 772.884 820.715 772.884 819.942C772.884 811.766 780.209 797.832 786.84 797.832C788.457 797.832 789.174 798.68 789.174 800.15C789.174 804.413 783.143 813.511 776.512 820.665C776.905 822.136 777.69 823.033 779.03 823.033C781.11 823.033 783.767 821.562 786.678 817.724L786.701 817.699ZM776.327 818.322C781.526 812.015 787.025 803.69 787.025 800.898C787.025 800.275 786.771 800.001 786.193 800.001C781.272 800.001 776.396 811.617 776.327 818.347V818.322Z" fill="#A3ADEE"/>
<path d="M794.511 808.999C794.511 809.972 794.65 810.894 795.02 811.667C797.353 810.894 799.756 810.42 801.951 810.42C803.823 810.42 804.678 811.268 804.678 812.24C804.678 813.91 802.344 816.228 798.971 816.228C796.822 816.228 795.089 815.381 793.841 814.06C789.821 816.228 787.557 820.142 787.557 823.158C787.557 825.75 789.174 827.769 792.755 827.769C796.66 827.769 800.473 825.327 803.268 822.585C804.562 821.264 805.81 819.568 807.289 817.674C807.289 817.674 807.797 817.898 807.797 818.372C807.797 818.522 807.797 818.646 807.658 818.871C806.295 820.765 805.001 822.36 803.707 823.831C799.687 828.318 793.98 831.259 789.497 831.259C783.86 831.259 781.595 828.592 781.595 824.903C781.595 819.942 786.794 815.181 792.755 812.589C792.108 811.392 791.785 809.997 791.785 808.526C791.785 803.765 795.736 798.53 805.671 798.53C808.513 798.53 810.269 799.428 810.269 800.898C810.269 801.945 809.368 803.217 807.358 804.612C807.289 801.87 804.054 800.774 802.367 800.774C797.376 800.774 794.511 805.186 794.511 809.024V808.999ZM803.06 813.137C803.06 812.639 802.413 812.24 800.912 812.24C799.086 812.24 797.4 812.589 795.921 813.088C796.822 814.01 798.07 814.558 799.756 814.558C801.766 814.558 803.06 813.785 803.06 813.162V813.137Z" fill="#A3ADEE"/>
<path d="M847.007 817.699C847.007 817.699 847.515 817.923 847.515 818.397C847.515 818.546 847.515 818.671 847.377 818.895C844.327 823.457 840.561 825.825 837.649 825.825C835.778 825.825 834.53 825.052 833.883 823.656C829.724 827.57 825.657 830.436 822.862 830.436C820.921 830.436 820.066 829.24 820.066 827.221C820.066 820.291 829.678 804.487 832.843 800.624C833.814 799.427 834.276 799.427 835.755 799.427C836.794 799.427 837.903 799.577 837.903 800.2C837.903 800.275 837.719 800.549 837.719 800.549C833.444 806.507 826.374 818.671 826.374 823.631C826.374 824.952 826.882 825.8 828.13 825.8C829.17 825.8 831.11 824.254 833.329 821.961C833.19 821.338 833.19 820.715 833.19 819.942C833.19 811.766 840.514 797.832 847.146 797.832C848.763 797.832 849.479 798.68 849.479 800.15C849.479 804.413 843.449 813.511 836.818 820.665C837.21 822.136 837.996 823.033 839.336 823.033C841.416 823.033 844.073 821.562 846.984 817.724L847.007 817.699ZM836.633 818.322C841.831 812.015 847.331 803.69 847.331 800.898C847.331 800.275 847.076 800.001 846.499 800.001C841.577 800.001 836.702 811.617 836.633 818.347V818.322Z" fill="#A3ADEE"/>
<path d="M856.55 802.792C858.098 801.172 858.375 801.172 860.178 801.172C861.333 801.172 862.049 801.372 862.049 801.945C862.049 802.094 861.98 802.144 861.91 802.294C857.821 807.828 848.417 820.49 848.417 826.024C848.417 827.844 848.925 828.741 849.849 828.741C851.721 828.741 855.487 825.027 861.194 817.674C861.194 817.674 861.702 817.898 861.702 818.372C861.702 818.521 861.702 818.646 861.564 818.87C855.21 827.694 849.433 831.608 845.991 831.608C843.911 831.608 842.617 830.137 842.617 827.47C842.617 821.463 852.414 807.179 856.504 802.767L856.55 802.792ZM866.485 786.465C868.75 786.465 870.321 788.21 870.321 790.454C870.321 793.744 867.456 796.61 864.475 796.61C862.211 796.61 860.709 794.94 860.709 792.622C860.709 789.332 863.551 786.465 866.485 786.465Z" fill="#A3ADEE"/>
<path d="M924.619 770.512C924.619 777.641 910.617 793.271 892.179 797.109C884.646 809.074 878.87 821.313 878.87 825.999C878.87 827.819 879.378 828.716 880.303 828.716C882.174 828.716 885.94 825.002 891.647 817.649C891.647 817.649 892.156 817.873 892.156 818.347C892.156 818.496 892.156 818.621 892.017 818.845C885.779 827.445 880.395 831.234 877.091 831.234C875.011 831.234 873.787 829.689 873.787 826.897C873.787 825.426 874.18 823.457 874.942 821.164C872.354 823.831 866.046 829.689 861.587 829.689C858.029 829.689 856.527 827.719 856.527 824.853C856.527 816.876 868.265 801.696 879.748 801.696C881.897 801.696 882.613 802.469 882.613 803.366C882.613 804.762 881.111 806.432 880.788 806.432C880.672 806.432 880.072 803.64 877.022 803.64C871.245 803.64 862.812 816.228 862.812 821.687C862.812 823.233 863.459 824.205 865.007 824.205C868.519 824.205 872.978 820.565 876.421 817.125C878.824 811.467 882.659 804.587 887.188 797.732C886.218 797.732 884.531 797.184 884.531 795.489C884.531 794.991 884.785 794.592 885.316 794.592C885.963 794.666 887.072 794.741 888.112 794.741C888.505 794.741 888.898 794.741 889.291 794.666C899.342 780.259 912.05 766.873 920.368 766.873C923.279 766.873 924.596 768.269 924.596 770.438L924.619 770.512ZM919.351 769.266C912.858 769.266 902.623 781.081 894.05 794.193C910.594 790.977 921.223 776.694 921.223 771.31C921.223 770.039 920.645 769.291 919.351 769.291V769.266Z" fill="#A3ADEE"/>
<path d="M898.741 808.999C898.741 809.972 898.879 810.894 899.249 811.667C901.583 810.894 903.986 810.42 906.181 810.42C908.052 810.42 908.907 811.268 908.907 812.24C908.907 813.91 906.574 816.228 903.2 816.228C901.051 816.228 899.318 815.381 898.071 814.06C894.05 816.228 891.786 820.142 891.786 823.158C891.786 825.75 893.403 827.769 896.985 827.769C900.866 827.769 904.702 825.327 907.498 822.585C908.792 821.264 910.039 819.568 911.518 817.674C911.518 817.674 912.027 817.898 912.027 818.372C912.027 818.522 912.027 818.646 911.888 818.871C910.525 820.765 909.231 822.36 907.937 823.831C903.916 828.318 898.209 831.259 893.727 831.259C888.089 831.259 885.825 828.592 885.825 824.903C885.825 819.942 891.023 815.181 896.985 812.589C896.338 811.392 896.014 809.997 896.014 808.526C896.014 803.765 899.965 798.53 909.901 798.53C912.743 798.53 914.499 799.428 914.499 800.898C914.499 801.945 913.598 803.217 911.588 804.612C911.518 801.87 908.283 800.774 906.597 800.774C901.606 800.774 898.741 805.186 898.741 809.024V808.999ZM907.313 813.137C907.313 812.639 906.666 812.24 905.164 812.24C903.339 812.24 901.652 812.589 900.173 813.088C901.074 814.01 902.322 814.558 904.009 814.558C906.019 814.558 907.313 813.785 907.313 813.162V813.137Z" fill="#A3ADEE"/>
<path d="M937.42 805.435C937.42 809.224 933.145 816.503 927.23 822.385C927.739 823.083 928.455 823.432 929.379 823.432C931.459 823.432 934.37 821.338 937.166 817.699C937.166 817.699 937.743 817.923 937.743 818.397C937.743 818.547 937.674 818.671 937.559 818.895C934.763 823.158 931.135 825.277 928.155 825.277C926.999 825.277 925.96 825.003 925.105 824.379C920.622 828.293 915.446 831.16 910.502 831.16C907.775 831.16 906.551 829.489 906.551 826.972C906.551 818.223 920.83 798.979 937.166 798.979C939.315 798.979 939.962 799.602 939.962 800.375C939.962 801.497 938.483 802.893 938.136 802.893C937.998 802.893 937.489 800.923 934.439 800.923C925.613 800.923 912.651 817.026 912.651 824.03C912.651 826 913.69 827.246 916.093 827.246C918.496 827.246 921.223 825.426 923.741 822.909C923.094 821.862 922.771 820.391 922.771 818.646C922.771 812.14 928.224 803.042 935.086 803.042C936.704 803.042 937.42 803.939 937.42 805.485V805.435ZM932.498 805.236C929.703 805.236 926.399 813.137 926.399 818.522C926.399 819.02 926.399 819.419 926.468 819.843C930.35 814.932 933.4 809 933.4 806.482C933.4 805.709 933.145 805.236 932.498 805.236Z" fill="#A3ADEE"/>
<path d="M932.821 835.746C932.821 835.397 933.076 835.123 933.977 834.973C939.176 834.126 942.341 830.212 942.341 826.373C942.341 825.326 941.833 824.13 941.833 823.158C941.833 820.914 943.982 819.02 946.107 819.02C948.58 819.02 949.666 820.216 949.666 822.036C949.666 826.648 942.526 835.048 933.445 836.868C933.445 836.868 932.798 836.244 932.798 835.746H932.821Z" fill="#A3ADEE"/>
<path d="M436.559 906.164C436.559 912.396 440.648 917.356 450.953 917.356C462.691 917.356 475.214 908.532 475.214 891.757C475.214 880.988 471.263 867.677 471.263 859.975C471.263 850.727 480.921 844.72 488.708 844.72C494.022 844.72 498.505 847.511 498.505 854.017C498.505 859.975 493.583 866.755 486.051 866.755C483.579 866.755 482.932 865.708 482.932 864.512C482.932 863.116 483.833 861.645 483.833 861.645C485.45 862.692 487.275 863.265 488.893 863.265C492.266 863.265 495.062 860.947 495.062 855.712C495.062 850.478 490.718 847.586 486.236 847.586C481.43 847.586 476.508 850.802 476.508 857.532C476.508 864.885 481.314 878.869 481.314 890.211C481.314 910.028 464.193 919.6 449.983 919.6C439.077 919.6 434.479 913.518 434.479 906.015C434.479 893.9 446.54 878.022 463.222 878.022C469.715 878.022 472.442 881.811 472.442 886.497C472.442 894.548 464.586 905.317 453.957 905.317C449.937 905.317 447.349 901.827 447.349 898.811C447.349 896.717 448.573 894.823 451.439 894.399C450.653 895.371 450.329 896.493 450.329 897.614C450.329 900.406 452.525 903.148 455.898 903.148C463.292 903.148 469.461 895.321 469.461 889.139C469.461 885.226 466.989 882.01 460.704 882.01C447.927 882.01 436.582 895.795 436.582 906.164H436.559Z" fill="#E1EF64"/>
<path d="M511.005 887.968C511.005 891.757 506.73 899.035 500.815 904.918C501.324 905.616 502.04 905.965 502.964 905.965C505.044 905.965 507.955 903.871 510.751 900.232C510.751 900.232 511.328 900.456 511.328 900.93C511.328 901.079 511.259 901.204 511.144 901.428C508.348 905.691 504.72 907.809 501.74 907.809C500.584 907.809 499.544 907.535 498.69 906.912C494.207 910.826 489.031 913.692 484.087 913.692C481.36 913.692 480.136 912.022 480.136 909.504C480.136 900.755 494.415 881.512 510.751 881.512C512.9 881.512 513.547 882.135 513.547 882.908C513.547 884.029 512.068 885.425 511.721 885.425C511.583 885.425 511.074 883.456 508.024 883.456C499.198 883.456 486.236 899.559 486.236 906.563C486.236 908.532 487.275 909.779 489.678 909.779C492.081 909.779 494.808 907.959 497.326 905.441C496.679 904.394 496.356 902.924 496.356 901.179C496.356 894.673 501.809 885.575 508.671 885.575C510.289 885.575 511.005 886.472 511.005 888.018V887.968ZM506.06 887.743C503.265 887.743 499.96 895.645 499.96 901.029C499.96 901.528 499.96 901.927 500.03 902.35C503.911 897.44 506.961 891.507 506.961 888.99C506.961 888.217 506.707 887.743 506.06 887.743Z" fill="#E1EF64"/>
<path d="M523.274 903.223C523.135 903.223 523.02 903.347 523.02 903.347C521.333 905.167 514.332 912.795 509.203 912.795C506.8 912.795 505.829 911.748 505.829 910.003C505.829 905.092 513.477 894.748 519.577 886.846C521.772 884.328 522.881 883.281 523.667 883.132C523.99 883.057 524.568 882.982 525.145 882.982C526.047 882.982 526.971 883.182 526.971 883.755C526.971 883.979 526.832 884.104 526.832 884.104C519.762 891.233 512.437 903.198 512.437 906.563C512.437 907.111 512.691 907.46 513.154 907.46C517.497 907.46 522.881 901.802 526.393 897.589C528.727 893.95 531.523 890.161 534.434 886.597C536.583 884.004 537.738 883.157 538.524 882.883C538.916 882.733 539.563 882.658 540.21 882.658C540.996 882.658 541.758 882.808 541.758 883.356C541.758 883.506 541.689 883.556 541.643 883.705C534.434 890.909 526.786 902.799 526.786 908.482C526.786 910.302 527.294 911.199 528.218 911.199C530.09 911.199 533.856 907.485 539.563 900.132C539.563 900.132 540.072 900.356 540.072 900.83C540.072 900.979 540.072 901.104 539.933 901.328C533.579 910.078 527.941 913.991 524.568 913.991C522.488 913.991 521.264 912.595 521.264 909.853C521.264 908.108 521.98 905.79 523.274 903.123V903.223Z" fill="#E1EF64"/>
<path d="M549.106 885.575C550.076 884.378 550.539 884.378 552.017 884.378C553.057 884.378 554.166 884.528 554.166 885.151C554.166 885.301 554.097 885.35 554.027 885.5C554.027 885.5 548.066 893.826 543.26 902.375C547.812 897.415 562.6 882.509 567.983 882.509C568.376 882.509 568.492 882.708 568.492 883.007C568.492 883.356 568.284 883.855 568.168 883.905C563.177 887.694 553.889 902.799 553.889 908.532C553.889 910.352 554.397 911.249 555.321 911.249C557.193 911.249 560.959 907.535 566.666 900.182C566.666 900.182 567.175 900.406 567.175 900.88C567.175 901.029 567.175 901.154 567.036 901.378C560.797 909.978 555.414 913.767 552.11 913.767C550.03 913.767 548.159 913.069 548.159 910.277C548.159 904.968 555.298 894.523 560.289 888.865C560.289 888.666 560.174 888.666 560.035 888.666C558.348 888.666 542.521 905.317 539.471 908.757C538.177 910.003 536.097 913.019 534.087 913.019C532.793 913.019 531.938 912.122 531.938 910.502L549.06 885.575H549.106Z" fill="#E1EF64"/>
<path d="M630.138 853.045C630.138 860.174 616.136 875.803 597.697 879.642C590.165 891.607 584.389 903.846 584.389 908.532C584.389 910.352 584.897 911.249 585.821 911.249C587.693 911.249 591.459 907.535 597.166 900.182C597.166 900.182 597.674 900.406 597.674 900.88C597.674 901.029 597.674 901.154 597.536 901.378C591.297 909.978 585.914 913.767 582.609 913.767C580.53 913.767 579.305 912.221 579.305 909.429C579.305 907.959 579.698 905.99 580.461 903.696C577.873 906.364 571.565 912.221 567.106 912.221C563.547 912.221 562.045 910.252 562.045 907.385C562.045 899.409 573.783 884.229 585.267 884.229C587.415 884.229 588.132 885.001 588.132 885.899C588.132 887.294 586.63 888.965 586.306 888.965C586.191 888.965 585.59 886.173 582.54 886.173C576.764 886.173 568.33 898.761 568.33 904.22C568.33 905.765 568.977 906.737 570.525 906.737C574.037 906.737 578.497 903.098 581.939 899.658C584.342 894 588.178 887.12 592.707 880.265C591.736 880.265 590.049 879.717 590.049 878.022C590.049 877.523 590.304 877.124 590.835 877.124C591.482 877.199 592.591 877.274 593.631 877.274C594.024 877.274 594.416 877.274 594.809 877.199C604.86 862.791 617.568 849.406 625.886 849.406C628.798 849.406 630.115 850.802 630.115 852.97L630.138 853.045ZM624.893 851.774C618.4 851.774 608.164 863.589 599.592 876.701C616.136 873.485 626.764 859.202 626.764 853.818C626.764 852.547 626.187 851.799 624.893 851.799V851.774Z" fill="#E1EF64"/>
<path d="M612.97 914.066C612.97 913.568 613.224 913.169 613.756 913.169C614.403 913.244 615.512 913.318 616.552 913.318C640.35 913.318 659.297 876.377 659.297 860.822C659.297 856.685 657.934 854.042 655.023 854.042C647.767 854.042 633.165 871.541 609.158 912.82C607.795 915.188 607.078 916.384 605.207 916.384C601.833 916.384 599.892 916.235 599.892 915.188C599.892 914.914 599.892 914.639 600.401 913.867C607.471 902.799 623.437 876.576 632.448 859.202C632.448 859.202 632.448 858.978 632.31 858.978C632.125 858.978 632.125 859.053 631.917 859.202C624.523 866.406 616.528 869.497 606.154 869.497C603.173 869.497 598.252 868.724 598.252 866.356C598.252 865.509 598.968 864.113 599.754 864.113C600.724 864.113 600.586 866.905 608.003 866.905C619.347 866.905 631.085 861.944 637.508 850.528C637.693 850.254 637.763 850.104 638.017 850.104C638.594 850.104 639.311 850.802 639.311 851.575C639.311 851.774 639.241 852.073 639.126 852.273C638.34 853.12 632.31 864.661 624.454 880.265C624.454 880.265 619.001 891.383 618.539 892.156C618.539 892.156 618.539 892.43 618.931 892.43C642.037 857.507 648.715 850.503 657.865 850.503C662.786 850.503 665.004 854.641 665.004 860.847C665.004 879.243 645.156 915.786 615.627 915.786C614.657 915.786 612.97 915.711 612.97 914.041V914.066Z" fill="#E1EF64"/>
<path d="M662.231 891.532C662.231 892.504 662.37 893.427 662.74 894.199C665.073 893.427 667.476 892.953 669.672 892.953C671.543 892.953 672.398 893.801 672.398 894.773C672.398 896.443 670.064 898.761 666.691 898.761C664.542 898.761 662.809 897.914 661.561 896.592C657.541 898.761 655.277 902.675 655.277 905.691C655.277 908.283 656.894 910.302 660.476 910.302C664.357 910.302 668.193 907.859 670.989 905.117C672.282 903.796 673.53 902.101 675.009 900.207C675.009 900.207 675.517 900.431 675.517 900.905C675.517 901.054 675.517 901.179 675.379 901.403C674.015 903.298 672.721 904.893 671.428 906.364C667.407 910.851 661.7 913.792 657.218 913.792C651.58 913.792 649.315 911.125 649.315 907.436C649.315 902.475 654.514 897.714 660.476 895.122C659.829 893.925 659.505 892.529 659.505 891.059C659.505 886.298 663.456 881.063 673.392 881.063C676.234 881.063 677.99 881.96 677.99 883.431C677.99 884.478 677.088 885.749 675.078 887.145C675.009 884.403 671.774 883.306 670.087 883.306C665.097 883.306 662.231 887.719 662.231 891.557V891.532ZM670.804 895.67C670.804 895.172 670.157 894.773 668.655 894.773C666.83 894.773 665.143 895.122 663.664 895.62C664.565 896.543 665.813 897.091 667.5 897.091C669.51 897.091 670.804 896.318 670.804 895.695V895.67Z" fill="#E1EF64"/>
<path d="M698.045 900.905C698.045 901.054 698.045 901.179 697.906 901.403C691.737 910.003 685.637 912.87 679.815 912.87C673.992 912.87 671.705 909.654 671.705 906.214C671.705 902.425 674.177 898.437 676.303 898.437C676.765 898.437 677.204 898.512 677.666 898.636C680.462 895.271 683.581 891.707 686.284 888.292C686.215 887.32 686.076 886.123 686.076 885.151C686.076 879.343 689.126 876.601 691.136 876.601C692.107 876.601 692.823 877.224 692.823 878.495C692.823 880.515 690.998 883.605 688.271 887.245C688.733 890.809 689.889 895.845 689.889 900.955C689.889 905.292 688.063 908.308 685.614 910.177C689.311 908.931 693.216 905.641 697.491 900.182C697.491 900.182 697.999 900.406 697.999 900.88L698.045 900.905ZM673.923 908.333C673.923 909.529 674.57 910.227 675.933 910.227C680.854 910.227 686.446 901.827 686.446 890.909V889.713C683.858 892.853 681.201 895.869 678.659 899.16C678.914 899.309 679.052 899.434 679.122 899.509C675.748 902.998 673.923 906.364 673.923 908.333ZM689.75 879.293C688.965 879.293 687.994 880.34 687.994 883.281C687.994 883.83 688.063 884.403 688.133 885.874C689.75 883.63 690.79 881.736 690.79 880.564C690.79 879.792 690.282 879.293 689.75 879.293Z" fill="#E1EF64"/>
<path d="M706.433 885.301C707.981 883.68 708.258 883.68 710.06 883.68C711.216 883.68 711.932 883.88 711.932 884.453C711.932 884.603 711.863 884.653 711.793 884.802C707.704 890.336 698.3 902.999 698.3 908.532C698.3 910.352 698.808 911.249 699.732 911.249C701.604 911.249 705.37 907.535 711.077 900.182C711.077 900.182 711.585 900.406 711.585 900.88C711.585 901.029 711.585 901.154 711.447 901.378C705.093 910.203 699.316 914.116 695.873 914.116C693.794 914.116 692.5 912.645 692.5 909.978C692.5 903.971 702.297 889.688 706.387 885.276L706.433 885.301ZM716.368 868.999C718.633 868.999 720.204 870.743 720.204 872.987C720.204 876.277 717.339 879.144 714.358 879.144C712.094 879.144 710.592 877.474 710.592 875.155C710.592 871.865 713.434 868.999 716.368 868.999Z" fill="#E1EF64"/>
<path d="M700.333 928C698.9 928 697.537 927.501 697.537 927.152C697.537 926.928 697.93 926.803 698.831 926.729C707.912 926.18 722.768 905.167 722.699 904.469C722.699 904.27 722.561 904.12 722.376 904.12C722.237 904.12 722.122 904.195 721.867 904.469C720.25 906.214 712.255 913.991 707.149 913.991C704.746 913.991 703.706 912.72 703.706 910.626C703.706 902.151 721.151 880.813 738.157 880.813C740.421 880.813 741.207 881.711 741.207 882.783C741.207 884.378 739.381 886.422 738.411 886.422C738.272 886.422 738.48 882.783 735.43 882.783C724.016 882.783 710.06 901.951 710.06 906.862C710.06 907.56 710.384 907.984 711.031 907.984C716.23 907.984 725.056 899.11 728.037 895.745C729.146 894.498 730.832 892.255 731.664 891.258C732.242 890.635 733.744 890.41 734.506 890.41C735.685 890.41 736.77 890.61 736.77 891.183C736.77 891.333 736.701 891.382 736.632 891.532C732.357 897.614 716.461 928 700.31 928H700.333Z" fill="#E1EF64"/>
<path d="M747.584 885.575C748.554 884.378 749.016 884.378 750.495 884.378C751.535 884.378 752.644 884.528 752.644 885.151C752.644 885.301 752.574 885.35 752.505 885.5C752.505 885.5 746.544 893.826 741.738 902.375C746.29 897.415 761.077 882.509 766.461 882.509C766.854 882.509 766.969 882.708 766.969 883.007C766.969 883.356 766.761 883.855 766.646 883.905C761.655 887.694 752.366 902.799 752.366 908.532C752.366 910.352 752.875 911.249 753.799 911.249C755.67 911.249 759.437 907.535 765.144 900.182C765.144 900.182 765.652 900.406 765.652 900.88C765.652 901.029 765.652 901.154 765.514 901.378C759.275 909.978 753.891 913.767 750.587 913.767C748.508 913.767 746.636 913.069 746.636 910.277C746.636 904.968 753.776 894.523 758.767 888.865C758.767 888.666 758.651 888.666 758.513 888.666C756.826 888.666 740.998 905.317 737.948 908.757C736.655 910.003 734.575 913.019 732.565 913.019C731.271 913.019 730.416 912.122 730.416 910.502L747.537 885.575H747.584Z" fill="#E1EF64"/>
<path d="M375.767 912.047H371.054V906.987C369.367 909.38 366.872 911.748 363.96 911.748C360.818 911.748 358.415 908.906 358.484 904.918C358.6 897.166 366.017 890.635 371.1 887.818V884.951C371.008 882.359 370.338 879.717 367.496 879.717C365.393 879.717 363.984 882.11 364.007 884.204C363.845 885.674 362.967 886.347 362.135 886.347C361.118 886.347 360.148 885.35 360.448 883.655C361.118 880.365 364.654 878.495 367.519 878.47C371.262 878.446 373.942 880.514 374.104 885.126V908.931C374.104 910.127 375.12 910.801 375.791 910.801C376.299 910.801 376.299 912.072 375.791 912.072L375.767 912.047ZM371.077 889.239C366.918 891.931 361.604 897.714 361.373 904.32C361.28 907.086 363.013 909.081 365.37 909.081C367.727 909.081 369.644 907.161 371.077 905.317V889.239Z" fill="white"/>
<path d="M383.531 908.906C383.531 910.102 384.548 910.775 385.171 910.775C385.703 910.775 385.703 912.047 385.171 912.047H378.794C378.286 912.047 378.286 910.775 378.794 910.775C379.464 910.775 380.481 910.102 380.481 908.906V882.957C380.481 881.461 380.158 881.237 379.256 881.287C378.725 881.362 378.656 880.115 379.164 880.066C380.25 879.991 381.983 879.392 382.93 878.57C383 878.545 383.046 878.495 383.115 878.495C383.3 878.495 383.531 878.744 383.531 879.118V885.649C385.079 881.162 387.736 878.57 390.971 878.57C394.968 878.57 397.441 883.381 397.441 889.338V908.931C397.441 910.127 398.457 910.8 399.127 910.8C399.636 910.8 399.636 912.072 399.127 912.072H392.75C392.219 912.072 392.219 910.8 392.75 910.8C393.374 910.8 394.391 910.127 394.391 908.931V889.338C394.414 884.926 393.12 880.539 389.931 880.539C386.766 880.664 384.548 884.154 383.531 888.715V908.931V908.906Z" fill="white"/>
<path d="M422.972 912.047H418.282V909.355C416.341 911.299 414.215 912.122 412.136 912.047C406.151 911.773 401.576 904.344 401.738 894.872C401.923 885.599 406.498 878.67 412.297 878.67C414.654 878.67 416.618 879.767 418.282 881.462V868.375C418.282 867.802 418.259 867.303 418.097 867.079C417.935 866.805 417.612 866.68 417.057 866.705C416.549 866.805 416.433 865.508 416.988 865.483C417.981 865.459 419.83 864.736 420.731 863.988C420.8 863.913 420.846 863.913 420.916 863.913C421.147 863.913 421.332 864.162 421.332 864.536V908.906C421.332 910.103 422.348 910.776 422.972 910.776C423.504 910.776 423.504 912.047 422.972 912.047ZM418.282 883.057C417.011 881.611 415.37 880.514 413.476 880.514C408.531 880.514 404.927 887.344 404.788 894.847C404.626 902.575 407.953 910.277 413.129 910.501C414.839 910.576 416.618 909.754 418.305 907.809V883.057H418.282Z" fill="white"/>
<path d="M547.211 497.813L506.014 492.878" stroke="#C3C3C3" stroke-width="0.75" stroke-linecap="round"/>
<path d="M549.014 498.437L528.403 537.97" stroke="#C3C3C3" stroke-width="0.75" stroke-linecap="round"/>
<path d="M954.703 149.386C978.155 192.809 948.349 252.284 880.926 313.38C813.527 374.451 708.604 437.092 582.147 486.746C455.69 536.4 331.705 563.695 233.46 567.658C135.191 571.622 62.8473 552.278 39.3951 508.856C15.9428 465.408 45.7491 405.958 113.171 344.862C180.571 283.792 285.493 221.151 411.951 171.497C538.408 121.842 662.393 94.5475 760.638 90.5841C858.907 86.6208 931.251 105.964 954.703 149.386Z" stroke="#C3C3C3" stroke-width="0.75"/>
<path d="M971.732 207.341C995.184 250.764 965.378 310.239 897.955 371.335C830.556 432.405 725.633 495.046 599.176 544.7C472.719 594.355 348.734 621.649 250.488 625.613C152.22 629.601 79.8761 610.258 56.4239 566.81C32.9717 523.388 62.7779 463.913 130.2 402.817C197.599 341.746 302.522 279.105 428.98 229.451C555.437 179.797 679.422 152.502 777.667 148.539C875.936 144.575 948.279 163.919 971.732 207.341Z" stroke="#C3C3C3" stroke-width="0.75"/>
<path fill-rule="evenodd" clip-rule="evenodd" d="M954.864 426.573C961.704 439.011 967.549 454.391 973.742 474.183C979.934 454.391 985.757 439.011 992.619 426.573C1008.84 430.187 1026.35 438.363 1048.6 451.101C1038.18 426.772 1031.3 407.304 1027.92 389.407C1039.08 382.577 1052.74 376.619 1070 370.338C1051.88 363.757 1037.77 357.525 1026.33 350.272C1028.69 329.408 1036.1 307.223 1048.6 278.034C1023.95 292.167 1005.05 300.667 987.374 303.584C982.66 293.214 978.316 281.05 973.742 266.493C969.19 281.05 964.823 293.214 960.109 303.584C942.41 300.667 923.533 292.142 898.879 278.034C911.379 307.223 918.796 329.408 921.153 350.297C909.716 357.55 895.575 363.757 877.483 370.363C894.743 376.644 908.399 382.602 919.559 389.432C916.209 407.329 909.3 426.797 898.879 451.125C921.13 438.388 938.667 430.212 954.864 426.598V426.573Z" fill="#E4A2B0"/>
<path fill-rule="evenodd" clip-rule="evenodd" d="M892.202 622.871C892.202 646.327 873.925 665.346 851.374 665.346C828.823 665.346 810.546 646.327 810.546 622.871C810.546 599.415 828.823 580.396 851.374 580.396C873.925 580.396 892.202 599.415 892.202 622.871Z" fill="#E1EF64"/>
<path fill-rule="evenodd" clip-rule="evenodd" d="M826.096 114.514C787.764 93.1766 772.075 93.1766 733.743 114.514C752.736 71.4404 752.736 53.8172 733.743 10.7188C772.075 32.0561 787.764 32.0561 826.096 10.7188C807.104 53.7923 807.104 71.4155 826.096 114.514Z" fill="#688DEB"/>
<path fill-rule="evenodd" clip-rule="evenodd" d="M60.8372 311.012C48.0829 270.281 37.7546 259.139 0 245.379C37.7546 231.62 48.0829 220.477 60.8372 179.747C73.5915 220.477 83.9198 231.62 121.674 245.379C83.9198 259.114 73.5915 270.281 60.8372 311.012Z" fill="#A3ADEE"/>
<path d="M436.604 290.472C435.056 290.472 433.485 292.142 433.485 292.142C397.024 329.782 367.426 346.258 348.433 346.258C333.16 346.258 324.75 335.49 324.75 317.019C324.75 260.535 429.742 110.301 455.921 78.694C457.169 77.0239 458.093 75.3289 458.093 74.3319C458.093 73.6588 458.093 73.3348 457.469 73.3348C457.169 73.3348 456.545 73.6838 455.921 74.0078C455.921 74.0078 435.056 91.4815 401.091 91.4815C386.766 91.4815 363.082 87.7923 363.082 76.3509C363.082 72.3128 366.502 65.5825 370.245 65.5825C374.912 65.5825 374.289 79.0181 409.802 79.0181C445.315 79.0181 473.989 51.449 490.51 29.9372C491.434 28.5912 493.629 27.2451 498.297 27.2451C503.287 27.2451 507.331 28.5912 507.331 31.6073C507.331 32.2803 507.031 33.2774 506.407 34.2994C471.517 82.3583 361.534 233.614 361.534 293.463C361.534 307.921 368.397 314.302 378.679 314.302C413.892 314.302 450.029 257.17 450.029 257.17C467.474 225.563 537.276 101.876 578.704 52.1221C580.252 50.452 583.995 49.754 587.739 49.754C594.277 49.754 601.14 51.7731 601.14 55.4623C601.14 56.4593 600.839 57.4813 599.592 58.4784C564.078 95.4449 454.396 282.346 454.396 325.719C454.396 331.427 456.267 334.792 460.634 334.792C463.43 334.792 467.173 333.446 472.164 330.43C489.308 320.359 506.753 303.534 522.95 282.022C522.95 282.022 525.446 283.019 525.446 285.387C525.446 286.06 525.446 286.733 524.822 287.755C511.744 306.575 497.395 321.356 482.446 333.471C466.549 346.233 455.02 351.294 446.933 351.294C435.103 351.294 431.66 339.852 431.66 327.09C431.66 310.613 437.275 291.469 437.275 291.469C437.275 290.796 436.974 290.472 436.651 290.472H436.604Z" fill="white"/>
<path d="M484.248 190.64C554.051 190.64 632.864 98.8847 665.582 40.7305C666.206 39.0604 666.829 38.7114 668.077 38.7114C670.573 38.7114 674.316 42.0765 674.316 45.7657C674.316 46.7628 674.015 48.1088 673.391 49.1308C621.658 133.832 572.743 225.937 554.051 254.852C554.351 254.852 556.223 254.852 558.094 252.833C627.896 159.731 692.384 74.6808 731.017 46.4387C734.76 43.7466 742.223 40.7305 748.462 40.7305C753.129 40.7305 756.572 42.0765 756.572 46.1147C756.572 47.7848 755.948 49.8039 754.377 52.4959C740.051 77.3729 625.701 297.875 625.701 393.669C625.701 420.565 634.736 437.715 657.472 437.715C683.026 437.715 707.634 414.508 717.292 373.503C718.216 369.814 721.659 367.122 724.778 367.122C727.274 367.122 729.446 368.792 729.446 373.179C729.446 386.615 710.753 447.81 645.018 447.81C606.685 447.81 592.36 426.971 592.36 394.691C592.36 311.336 688.641 152.004 716.044 80.414C716.044 78.3949 715.421 76.0518 713.249 76.0518C696.104 76.0518 586.445 230 547.489 279.081C535.959 293.538 511.351 329.507 502.941 341.946C495.455 353.038 492.035 354.035 483.324 354.035C473.666 354.035 465.256 353.038 465.256 345.959C465.256 342.943 466.804 339.902 466.804 339.902C593.608 155.02 607.956 133.857 609.204 131.489C609.204 131.489 609.204 130.492 608.58 130.492C607.656 130.492 607.656 130.841 606.708 131.489C576.186 166.436 525.4 203.079 475.538 203.079C461.212 203.079 437.529 199.39 437.529 187.948C437.529 183.91 440.948 177.18 444.692 177.18C449.359 177.18 448.735 190.615 484.272 190.615L484.248 190.64Z" fill="white"/>
<path d="M668.077 348.277C668.077 348.277 674.316 359.046 686.469 359.046C756.271 359.046 843.195 184.932 843.195 99.5578C843.195 71.9888 834.16 53.518 812.349 53.518C739.45 53.518 675.563 178.551 675.563 248.82C675.563 289.5 691.136 305.304 711.4 305.304C748.161 305.304 800.195 252.185 800.195 200.088C800.195 196.398 801.119 194.703 802.691 194.703C805.186 194.703 810.801 199.066 810.801 201.085C810.801 235.359 761.886 312.682 709.852 312.682C671.52 312.682 656.27 288.478 656.27 254.528C656.27 176.208 738.526 46.1147 811.748 46.1147C851.952 46.1147 867.825 71.3157 867.825 107.634C867.825 201.409 761.262 369.141 687.116 369.141C671.219 369.141 661.885 364.43 661.885 355.357C661.885 350.994 667.176 348.302 668.123 348.302L668.077 348.277Z" fill="white"/>
<path d="M163.334 22.6834C163.334 17.6482 167.608 9.24784 172.299 9.24784C178.145 9.24784 177.359 26.0485 221.745 26.0485C261.464 26.0485 308.576 0 317.934 0C321.053 0 323.387 0.847511 323.387 4.21263C323.387 8.82409 316.386 24.3784 316.386 24.3784C263.428 119.748 149.725 300.817 149.725 357.101C149.725 368.019 153.999 374.326 163.75 374.326C215.16 374.326 349.126 155.867 372.093 110.924C376.761 107.559 386.119 103.77 393.905 103.77C399.751 103.77 405.204 106.288 405.204 111.747C405.204 113.841 404.418 116.358 402.87 119.3C280.202 348.252 212.826 482.708 124.424 655.774C120.519 664.598 112.732 667.54 104.946 667.54C95.2184 667.54 85.4678 657.868 85.4678 651.562C85.4678 646.95 88.9798 641.491 88.9798 641.491C115.066 593.183 247.485 378.09 313.682 240.693C314.468 239.023 314.838 238.176 314.838 237.328C314.838 236.057 314.445 235.658 314.052 235.658C312.874 235.658 310.54 239.023 310.54 239.023C270.036 293.638 196.444 415.48 133.735 415.48C112.709 415.48 103.744 405.808 103.744 388.16C103.744 327.663 212.017 174.737 303.123 15.9282C303.516 15.5045 302.73 15.5045 302.338 15.5045C299.611 15.5045 250.165 41.553 210.816 41.553C192.909 41.553 163.311 36.9415 163.311 22.6585L163.334 22.6834Z" fill="white"/>
<path d="M191.823 624.89C144.179 621.674 105.893 611.305 80.8003 593.682" stroke="#C3C3C3" stroke-width="0.75"/>
<path d="M170.843 566.686C157.396 566.038 144.896 564.492 133.528 562.024" stroke="#C3C3C3" stroke-width="0.75"/>
</g>
<defs>
<clipPath id="clip0_212_192">
<rect width="1070" height="928" fill="white"/>
</clipPath>
</defs>
</svg>
