<?xml version="1.0" encoding="UTF-8"?>
<svg id="Layer_2" data-name="Layer 2" xmlns="http://www.w3.org/2000/svg" viewBox="0 0 153.37 88.98">
  <defs>
    <style>
      .cls-1 {
        fill: #dae24e;
      }

      .cls-1, .cls-2, .cls-3 {
        fill-rule: evenodd;
      }

      .cls-2 {
        fill: #a4add8;
      }

      .cls-4 {
        stroke-linecap: round;
      }

      .cls-4, .cls-5 {
        fill: none;
        stroke: #fff;
        stroke-width: .75px;
      }

      .cls-6 {
        fill: #fff;
      }

      .cls-3 {
        fill: #f09eb0;
      }
    </style>
  </defs>
  <g id="Layer_1-2" data-name="Layer 1">
    <g>
      <path class="cls-6" d="M3.79,13.82c0,.12.11.18.33.18.15,0,.85-.1,2.1-.31,1.24-.21,2.37-.32,3.39-.33-1.13.31-2.11.62-2.92.94-.82.32-1.66.67-2.52,1.06-.87.39-1.49.64-1.87.77-.38.13-.7.19-.98.19-.88,0-1.31-.57-1.31-1.7,0-2.92.74-4.97,2.21-6.16.6-.48,1.57-1.05,2.9-1.71s2.83-1.29,4.51-1.88c1.67-.59,3.52-1.1,5.52-1.53,2.01-.43,3.99-.64,5.95-.64s3.85.29,5.54.88c1.68.58,3.09,1.4,4.22,2.46,1.13,1.06,2,2.35,2.61,3.88s.92,3.25.92,5.15c0,2.9-.84,5.72-2.51,8.45-1.67,2.73-3.91,5.14-6.7,7.22-2.79,2.09-5.94,3.74-9.44,4.96-3.5,1.22-6.95,1.83-10.35,1.83-.63,0-1.14-.07-1.51-.21s-.63-.41-.79-.81c-.15-.4-.23-1-.23-1.79,0-.98.08-1.78.23-2.39.16-.62.41-1.33.77-2.14,2.47-5.48,6.77-12.37,12.9-20.68-1.24.14-2.59.4-4.07.79-1.48.39-2.88.81-4.2,1.28s-2.44.91-3.35,1.34c-.91.43-1.36.74-1.36.93ZM17.51,9.34s.03.23.1.58c.07.35.1.66.1.91,0,.4-.2.95-.61,1.66-.4.71-1.2,1.98-2.38,3.8-1.18,1.82-2.2,3.42-3.04,4.79s-1.84,3.14-2.99,5.31c-.36.69-.61,1.15-.75,1.39-.14.24-.36.64-.66,1.19-.3.55-.52,1.02-.66,1.42-.14.4-.21.7-.21.9,0,.45.24.76.73.94.49.18,1.19.27,2.1.27,2.33,0,4.81-.42,7.42-1.27,2.61-.85,5.06-2.03,7.35-3.54s4.13-3.22,5.5-5.13c1.37-1.91,2.06-3.9,2.06-5.98,0-2.37-.87-4.19-2.6-5.47-1.73-1.28-4.26-1.92-7.57-1.92-1.39,0-2.7.05-3.92.16Z"/>
      <path class="cls-6" d="M39.67,29.28v.64c0,1.01.25,1.8.75,2.37s1.15.85,1.96.85,1.71-.2,2.61-.59c.9-.39,1.8-.92,2.69-1.57s1.98-1.53,3.27-2.63v1.57c-1.94,2.33-3.76,4.12-5.46,5.37-1.7,1.25-3.43,1.87-5.18,1.87-1.53,0-2.74-.59-3.63-1.78-.89-1.18-1.34-2.81-1.34-4.87,0-1.8.42-3.44,1.26-4.91.84-1.47,2.21-3.02,4.12-4.65,1.3-1.12,2.6-1.96,3.89-2.52,1.29-.57,2.44-.85,3.45-.85.81,0,1.45.18,1.92.55.47.37.71.92.71,1.66,0,1.08-.4,2.16-1.21,3.23-.81,1.07-2.04,2.14-3.7,3.19-1.66,1.06-3.7,2.07-6.12,3.05ZM39.92,27.6c1.54-.6,2.87-1.35,3.97-2.24,1.1-.89,1.91-1.75,2.43-2.56.52-.82.79-1.41.79-1.79s-.18-.59-.54-.59c-.31,0-.81.2-1.51.59-.7.39-1.4.91-2.11,1.54-.71.64-1.35,1.38-1.92,2.24-.57.86-.94,1.79-1.11,2.81Z"/>
      <path class="cls-6" d="M50.84,29.07v-.62c4.43-4.67,7.48-7.94,9.14-9.81.38-2.11,1.29-3.17,2.73-3.17.36,0,.75.1,1.16.31l.15.49c-.07.21-.1.5-.1.88,0,.33.12.93.37,1.82.25.88.44,1.63.58,2.23.14.6.21,1.28.21,2.04,0,1.13-.26,2.22-.77,3.26s-1.26,2.03-2.24,2.99-2.24,1.93-3.79,2.92c.62.1,1.11.15,1.47.15.7,0,1.46-.18,2.28-.53.82-.35,1.65-.82,2.5-1.42.85-.59,1.84-1.36,2.98-2.31v1.73c-2.2,2.15-4.16,3.77-5.9,4.88-1.74,1.11-3.23,1.66-4.48,1.66-1.61,0-3.11-.69-4.48-2.06-.81-.82-1.31-1.61-1.51-2.37s-.3-1.78-.3-3.07ZM60.45,25.13l-.46-3.76c-1.06,1.2-3.34,3.51-6.83,6.93,1.03.22,1.73.52,2.11.9.38.38.91,1.11,1.6,2.19,1.17-.48,2.06-1.14,2.69-1.97.63-.83.94-1.97.94-3.41,0-.17,0-.33-.01-.46s-.02-.27-.04-.41Z"/>
      <path class="cls-6" d="M79.72,28.35v1.88c-1.67,2.15-3.22,3.76-4.66,4.86-1.44,1.09-2.67,1.64-3.68,1.64-1.41,0-2.46-.74-3.14-2.22-.69-1.48-1.03-3.09-1.03-4.84,0-.67.07-1.31.21-1.92.14-.61.3-1.11.49-1.51.19-.39.54-1.01,1.06-1.85,2.44-3.79,4.67-5.69,6.7-5.69,1.05,0,1.57.4,1.57,1.21,0,.55-.34,1.41-1.02,2.58-.68,1.17-1.28,2-1.82,2.5-1.49,1.44-2.47,2.45-2.92,3.01-.46.57-.68,1.21-.68,1.93,0,.62.23,1.13.7,1.54.46.41,1.06.62,1.8.62.81,0,1.7-.3,2.67-.89.97-.59,2.23-1.54,3.77-2.85ZM77.97,16.83c-.43,0-.84-.16-1.22-.49s-.58-.74-.58-1.24c0-.76.36-1.6,1.08-2.52.72-.93,1.47-1.39,2.24-1.39.52,0,.94.16,1.29.48.34.32.51.78.51,1.38,0,.74-.35,1.55-1.06,2.45-.7.89-1.46,1.34-2.27,1.34Z"/>
      <path class="cls-6" d="M99.96,30.07l-8.55,7.03c-2.4,4.16-4.59,7.26-6.57,9.31s-3.44,3.08-4.4,3.08c-.51,0-.77-.32-.77-.95,0-1.24.63-2.82,1.88-4.74.5-.76,1.07-1.49,1.71-2.21.64-.72,1.25-1.34,1.83-1.87.58-.52,1.33-1.18,2.28-1.96.94-.78,1.59-1.32,1.93-1.61,1.72-3.5,2.95-6.18,3.71-8.04-1.62,1.72-3.02,3.13-4.22,4.22-1.2,1.1-2.3,1.94-3.31,2.54s-1.91.89-2.72.89c-.88,0-1.68-.7-2.42-2.1-.74-1.4-1.11-2.84-1.11-4.31,0-.69.16-1.41.48-2.16.32-.76.82-1.56,1.49-2.42.68-.86,1.54-1.74,2.59-2.64s2.28-1.78,3.68-2.64c2.66-1.67,4.73-2.5,6.21-2.5,1.1,0,1.65.4,1.65,1.21,0,1.12-1.19,2.21-3.58,3.27-1.46.64-2.91,1.48-4.34,2.52-1.43,1.05-2.59,2.16-3.48,3.34-.88,1.18-1.33,2.24-1.33,3.18,0,.46.11.83.33,1.11.22.28.51.41.88.41.6,0,1.29-.27,2.06-.82.77-.55,1.91-1.52,3.43-2.91.69-.63,1.6-1.66,2.74-3.08,1.14-1.42,2.09-2.5,2.83-3.25.75-.75,1.42-1.12,2.02-1.12.34,0,.62.11.84.32.21.21.32.53.32.94,0,.79-.31,1.94-.94,3.44-.63,1.5-1.76,3.96-3.39,7.38l6.23-4.53v1.67Z"/>
      <path class="cls-6" d="M117.14,23.69c-3.02,3.37-4.53,5.71-4.53,7.03,0,.74.3,1.11.9,1.11.5,0,1.15-.26,1.94-.79.8-.52,2.05-1.46,3.75-2.79v1.78c-2.44,2.4-4.31,4.14-5.62,5.2s-2.37,1.6-3.19,1.6c-1.41,0-2.11-.93-2.11-2.78,0-.55.09-1.09.26-1.62.17-.53.41-1.09.71-1.66.3-.58.76-1.4,1.38-2.47s1.33-2.29,2.14-3.64c-.98.5-2.21,1.49-3.68,2.96-.96.93-1.78,1.81-2.45,2.64-.67.83-1.39,1.76-2.15,2.78-.76,1.02-1.32,1.71-1.67,2.06-.35.35-.71.53-1.07.53-.55,0-1.06-.58-1.52-1.73-.46-1.15-.7-2.49-.7-4.02,0-.94.11-1.68.32-2.21s.64-1.29,1.28-2.27c1.18-1.82,2.21-3.16,3.06-4.01.86-.85,1.68-1.27,2.47-1.27.55,0,.99.09,1.33.28.33.19.5.48.5.88,0,.17-.05.35-.15.54-.1.19-.22.36-.35.52-.13.15-.4.46-.81.9-2.71,3-4.07,4.95-4.07,5.85,0,.5.16.75.49.75.21,0,.6-.33,1.2-.99s1.36-1.53,2.29-2.6c.94-1.07,2.04-2.19,3.32-3.36s2.73-2.29,4.37-3.37c.91-.64,1.67-.95,2.27-.95.27,0,.54.38.81,1.13.27.76.4,1.52.4,2.29,0,.38-.37.95-1.11,1.73Z"/>
    </g>
    <g>
      <path class="cls-6" d="M11.55,72.68l-1.6-1.16c-.24-.21-.36-.42-.36-.64s.4-1,1.21-2.32c.58-.94,1.37-2.24,2.36-3.89.99-1.65,1.78-3,2.38-4.07.6-1.06,1.33-2.46,2.2-4.19.87-1.73,1.66-3.41,2.38-5.06,1.67-3.79,2.5-6.22,2.5-7.26,0-1.24-.48-1.85-1.44-1.85-.72,0-1.75.37-3.08,1.09-1.33.73-2.71,1.69-4.13,2.87-1.43,1.18-2.61,2.42-3.55,3.71s-1.42,2.42-1.42,3.4c0,.15.04.27.13.35.09.08.24.12.46.12.41,0,1.08-.24,2.01-.72.41-.21.62-.17.62.1s-.65.98-1.96,2.12c-1.31,1.14-2.27,1.71-2.89,1.71-.53,0-1.27-.46-2.23-1.38-.95-.92-1.43-1.76-1.43-2.51,0-.29.27-.99.8-2.09.53-1.1,1.26-2.34,2.19-3.72.93-1.38,1.91-2.58,2.94-3.59,1.18-1.18,2.54-2.24,4.06-3.17,1.52-.93,2.98-1.65,4.38-2.16,1.4-.52,2.53-.77,3.39-.77,1.24,0,2.2.47,2.9,1.4.7.94,1.04,2.25,1.04,3.93,0,2.23-.88,5.46-2.63,9.68-1.75,4.22-4.45,9.17-8.09,14.84.05.17.11.36.18.55.07.2.1.38.1.55,0,.03-.03.1-.08.19-.05.09-.11.19-.18.3-.07.1-.11.17-.13.21l-1.88,3.09c-.21.36-.42.54-.64.54-.21,0-.38-.07-.52-.21Z"/>
      <path class="cls-6" d="M40.4,59.16c-3.02,3.37-4.53,5.71-4.53,7.03,0,.74.3,1.11.9,1.11.5,0,1.15-.26,1.94-.79.8-.52,2.05-1.46,3.75-2.79v1.78c-2.44,2.4-4.31,4.14-5.62,5.2s-2.37,1.6-3.19,1.6c-1.41,0-2.11-.93-2.11-2.78,0-.55.08-1.09.26-1.62s.41-1.09.71-1.66c.3-.58.76-1.4,1.38-2.47s1.33-2.29,2.14-3.64c-.98.5-2.21,1.49-3.68,2.96-.96.93-1.78,1.81-2.45,2.64-.67.83-1.39,1.76-2.15,2.78s-1.32,1.71-1.67,2.06-.71.53-1.07.53c-.55,0-1.06-.58-1.52-1.73-.46-1.15-.7-2.49-.7-4.02,0-.94.11-1.68.32-2.21.21-.53.64-1.29,1.27-2.27,1.19-1.82,2.21-3.16,3.07-4.01.86-.85,1.68-1.27,2.47-1.27.55,0,.99.09,1.33.28.33.19.5.48.5.88,0,.17-.05.35-.16.54-.1.19-.22.36-.35.52s-.4.46-.81.9c-2.71,3-4.07,4.95-4.07,5.85,0,.5.16.75.49.75.21,0,.61-.33,1.2-.99.59-.66,1.36-1.53,2.29-2.6s2.04-2.19,3.32-3.36c1.28-1.17,2.73-2.29,4.37-3.37.91-.64,1.67-.95,2.27-.95.27,0,.54.38.81,1.13.27.76.4,1.52.4,2.29,0,.38-.37.95-1.11,1.73Z"/>
      <path class="cls-6" d="M51.35,50.45h1.11c.91-1.63,1.73-2.79,2.47-3.46.74-.68,1.58-1.02,2.52-1.02s1.42.21,1.42.64c0,.21-.37.76-1.11,1.67-.74.91-1.3,1.67-1.67,2.29.58.07,1.1.13,1.56.18.46.05.81.09,1.07.13-.98,1.82-2.21,3.68-3.68,5.59-.48-.03-.88-.06-1.21-.09-.33-.03-.66-.05-.99-.08-.33-.03-.74-.06-1.22-.09-.93,1.49-1.7,2.83-2.33,4-.63,1.18-1.11,2.25-1.44,3.23-.33.98-.5,1.91-.5,2.78,0,1.18.47,1.78,1.42,1.78.65,0,1.51-.35,2.56-1.04s2.47-1.76,4.24-3.21v1.73c-4.64,5.03-8.06,7.55-10.28,7.55-.77,0-1.4-.3-1.87-.9-.47-.6-.71-1.37-.71-2.32,0-.63.13-1.39.4-2.27s.74-2.2,1.43-3.97c-.24.21-.47.41-.68.61-.21.2-.41.38-.59.54-.18.16-.37.33-.58.52-.21.18-.41.36-.62.55v-1.78c1.8-1.51,3.98-4.16,6.54-7.96-.26-.02-.5-.03-.72-.04-.22,0-.49-.01-.8-.01-1.01,0-1.77.07-2.27.21-.21.05-.4.11-.58.17-.18.06-.31.09-.37.09s-.1-.05-.1-.16c0-.57.35-1.42,1.06-2.55.57-.96,1.1-1.67,1.61-2.14.51-.46,1.12-.78,1.85-.94.73-.16,1.75-.24,3.08-.24Z"/>
      <path class="cls-6" d="M67.81,63.82v1.88c-1.67,2.15-3.22,3.76-4.66,4.86s-2.67,1.64-3.68,1.64c-1.41,0-2.46-.74-3.14-2.22-.69-1.48-1.03-3.09-1.03-4.84,0-.67.07-1.31.21-1.92.14-.61.3-1.11.49-1.51.19-.39.54-1.01,1.06-1.85,2.44-3.79,4.67-5.69,6.7-5.69,1.05,0,1.57.4,1.57,1.21,0,.55-.34,1.41-1.02,2.58-.68,1.17-1.28,2-1.82,2.5-1.49,1.44-2.47,2.45-2.92,3.01-.46.57-.68,1.21-.68,1.93,0,.62.23,1.13.7,1.54s1.06.62,1.8.62c.81,0,1.7-.3,2.67-.89.97-.59,2.23-1.54,3.77-2.85ZM66.06,52.31c-.43,0-.84-.16-1.22-.49-.39-.33-.58-.74-.58-1.24,0-.76.36-1.6,1.08-2.52.72-.93,1.47-1.39,2.24-1.39.51,0,.94.16,1.29.48.34.32.51.78.51,1.38,0,.74-.35,1.55-1.06,2.45-.7.89-1.46,1.34-2.27,1.34Z"/>
      <path class="cls-6" d="M79.35,67.35c2.37-2.09,4.41-3.92,6.1-5.47,1.7-1.55,3.04-2.78,4.01-3.67.97-.89,1.82-1.65,2.56-2.27s1.21-.93,1.42-.93c.39-.02.77.39,1.13,1.22.36.83.54,1.5.54,2,0,.33-.54,1.09-1.64,2.31s-1.91,2.18-2.45,2.9c-.54.72-.81,1.48-.81,2.27,0,.46.15.84.46,1.12.31.28.68.43,1.11.43.5,0,1.09-.26,1.79-.77.7-.51,1.79-1.43,3.28-2.76v1.83c-1.49,1.41-2.85,2.62-4.07,3.64-1.22,1.02-2.28,1.79-3.18,2.29-.9.51-1.65.76-2.25.76-.53,0-.98-.2-1.34-.61-.36-.4-.54-.91-.54-1.51s.1-1.18.31-1.78c.21-.6.52-1.31.95-2.14.43-.82,1-1.82,1.7-2.98s1.35-2.22,1.93-3.18c-1.75,1.43-3.31,2.8-4.66,4.12s-2.46,2.48-3.32,3.46c-.86.99-1.54,1.76-2.04,2.33-.96,1.07-1.85,1.6-2.68,1.6-.89,0-1.34-.64-1.34-1.91,0-.52.33-1.44,1-2.77.67-1.33,1.62-3.03,2.86-5.09.1-.14.15-.35.15-.64,0-.34-.17-.51-.52-.51-.38,0-.92.36-1.63,1.07s-2.09,2.2-4.13,4.47c-.57.64-1.21,1.46-1.92,2.49-.71,1.02-1.22,1.7-1.53,2.05-.31.34-.62.52-.93.52-.62,0-1.19-.55-1.73-1.65s-.8-2.38-.8-3.84c0-1.06.18-1.98.53-2.76.35-.77.9-1.73,1.64-2.88,1.15-1.67,2.09-2.85,2.82-3.57.73-.71,1.5-1.07,2.31-1.07.5,0,.92.1,1.26.3.34.2.52.47.52.81,0,.36-.31.95-.94,1.78s-1.42,1.67-2.38,2.55c-.51.5-1,1.11-1.47,1.84-.46.73-.7,1.26-.7,1.58,0,.46.18.7.54.7.29,0,1.03-.6,2.21-1.8,1.18-1.2,2.49-2.51,3.9-3.93,1.42-1.42,2.73-2.59,3.94-3.53,1.21-.94,2.24-1.4,3.08-1.4.52,0,.94.19,1.28.58.33.39.5.86.5,1.43,0,.38-.26,1.06-.77,2.05-.52.99-1.27,2.21-2.25,3.66-.99,1.45-2.26,3.21-3.83,5.27Z"/>
      <path class="cls-6" d="M99.7,59.21c2.61-2.37,5.14-4.13,7.6-5.28,2.46-1.15,4.35-1.73,5.69-1.73.36,0,.7.15,1,.45.31.3.55.65.73,1.04.18.4.27.69.27.88,0,.31-.12.54-.36.68-.24.15-.66.32-1.26.53.12.27.27.63.46,1.06.19.43.33.78.44,1.04.1.27.16.5.16.71,0,.41-.42,1.18-1.25,2.3-.83,1.12-1.42,1.95-1.75,2.49-.33.53-.5,1.19-.5,1.96,0,1.27.58,1.91,1.75,1.91s3.08-1.12,5.64-3.38v1.57c-4.34,4.83-7.45,7.24-9.32,7.24-.67,0-1.15-.22-1.43-.66-.28-.44-.43-1.09-.43-1.94,0-1.36.49-3.32,1.47-5.9-2.51,2.78-4.37,4.76-5.59,5.94-1.22,1.18-2.22,1.76-3.01,1.76-.38,0-.85-.33-1.42-.98s-1.07-1.5-1.51-2.54-.66-2.12-.66-3.23c0-.81.08-1.48.23-2.02.15-.54.46-1.09.9-1.66s1.16-1.31,2.14-2.24ZM112.03,56.38c-4.46,2.04-7.65,3.78-9.54,5.2-1.9,1.43-2.85,2.89-2.85,4.4,0,.55.09,1,.28,1.35.19.35.45.53.77.53.19,0,.52-.12,1-.36,1.8-1.06,3.45-2.45,4.95-4.16,1.49-1.71,3.29-4.03,5.38-6.97Z"/>
      <path class="cls-6" d="M133.59,63.87v1.73c-1.84,1.8-3.34,3.2-4.49,4.2-1.16,1-2.24,1.77-3.25,2.32-1,.55-1.99.82-2.95.82s-1.81-.37-2.6-1.12-1.41-1.73-1.85-2.94c-.45-1.21-.67-2.49-.67-3.85,0-1.17.26-2.21.77-3.12.51-.91,1.51-2.09,2.99-3.53,1.75-1.72,3.38-3.04,4.88-3.98,1.5-.94,2.68-1.4,3.54-1.4.62,0,1.14.21,1.57.64.43.43.64.97.64,1.62,0,.55-.28,1.33-.85,2.34-.57,1.01-1.2,1.89-1.91,2.64s-1.26,1.12-1.67,1.12c-.45,0-.67-.24-.67-.72.02-.14.03-.27.04-.39,0-.12.01-.24.01-.36,0-.21-.07-.32-.22-.35-.15-.03-.32.04-.53.19-1.72,1.2-2.89,2.05-3.53,2.54-.63.49-1.14.98-1.51,1.48-.37.5-.55,1.02-.55,1.57,0,1.01.33,1.84.98,2.47.65.64,1.5.95,2.55.95s2.38-.42,3.9-1.25,3.31-2.05,5.37-3.65Z"/>
      <path class="cls-6" d="M145.36,64.83l-4.58,3.89c-2.18,1.91-3.64,2.86-4.38,2.86-.67,0-1.37-.77-2.11-2.31-.74-1.54-1.11-2.88-1.11-4.03,0-.98.15-1.81.45-2.49.3-.68.82-1.56,1.56-2.64,1.05-1.46,2.05-2.7,3.01-3.71.96-1.01,1.81-1.8,2.55-2.36.74-.56,1.25-.84,1.54-.84.46,0,.92.24,1.35.72.44.48.66.98.66,1.49,0,.33-.24.85-.71,1.57-.47.72-1.22,1.64-2.24,2.74-1.02,1.11-2.44,2.43-4.26,3.98l-.49,1.42c-.14.27-.21.51-.21.72,0,.46.23.7.7.7s1.61-.61,3.39-1.83c1.78-1.22,3.7-2.86,5.78-4.92.81-.81,1.48-1.52,2.01-2.14.53-.62,1.01-1.2,1.44-1.74.43-.54.79-.95,1.07-1.22s.54-.42.76-.44c.43-.05.76.13,1,.54.24.41.36,1.02.36,1.83,0,.46-.21,1.04-.62,1.74s-1.18,1.88-2.32,3.55c-1.13,1.67-2.26,3.41-3.39,5.2-1.12,1.79-2.27,3.82-3.44,6.07.05-.05.58-.57,1.58-1.54s2.06-2,3.18-3.07c1.12-1.06,2.04-1.92,2.76-2.56.72-.64,1.62-1.4,2.71-2.25v1.73c-2.32,2.49-4.42,4.85-6.3,7.08-1.88,2.23-3.33,4.02-4.35,5.36-1.02,1.34-1.62,2.12-1.79,2.34-.46.6-.88,1.16-1.25,1.69s-.68.93-.93,1.21c-.25.28-.45.42-.61.42-.36,0-.68-.36-.97-1.07-.28-.71-.42-1.34-.42-1.89,0-.5.09-.94.28-1.31,1.24-2.78,4.01-7.62,8.32-14.5Z"/>
    </g>
    <g>
      <path class="cls-6" d="M28.5,49.49c-.13,0-.19-.05-.19-.14,0-.11.09-.17.28-.2l.28-.04c.2-.03.34-.08.42-.15.08-.07.14-.21.17-.41l1.88-8.47c.05-.2.05-.34,0-.4s-.16-.12-.34-.16l-.28-.06c-.12-.03-.18-.08-.18-.16,0-.12.08-.17.25-.17h4.44c.23,0,.32.11.28.33l-.41,2.39c-.03.16-.1.24-.22.24-.13,0-.18-.06-.17-.19l.03-.5c.05-.66-.05-1.15-.3-1.46-.25-.31-.57-.46-.95-.46s-.68.07-.87.2c-.18.13-.31.34-.37.62l-.74,3.4c-.03.13.02.2.15.2h.51c.39,0,.69-.23.88-.68l.32-.71c.03-.06.06-.1.08-.14s.07-.05.12-.05c.05,0,.09.02.12.07.04.04.05.1.03.18l-.72,3.21c-.05.16-.12.25-.22.25-.11,0-.17-.06-.17-.19v-.69c0-.34-.04-.56-.12-.66-.08-.11-.23-.16-.44-.16h-.5c-.14,0-.22.07-.25.2l-.88,3.93c-.05.2-.05.34,0,.43.05.08.16.14.34.17l.73.1c.11,0,.17.06.17.16,0,.12-.08.17-.23.17h-2.91Z"/>
      <path class="cls-6" d="M35.93,49.62c-.57,0-1.02-.25-1.35-.74s-.5-1.17-.5-2.01c0-.62.1-1.22.29-1.8.19-.58.45-1.09.77-1.54s.67-.81,1.06-1.07c.39-.26.78-.4,1.18-.4.57,0,1.02.25,1.35.73.33.49.5,1.16.5,2.02,0,.62-.1,1.22-.29,1.8-.19.58-.45,1.09-.76,1.54-.32.45-.67.81-1.06,1.07-.39.26-.78.4-1.18.4ZM35.9,49.28c.29,0,.58-.15.86-.45.28-.3.54-.69.77-1.18.23-.49.41-1.03.55-1.63s.21-1.2.21-1.81c0-1.2-.3-1.8-.9-1.8-.29,0-.57.15-.86.44s-.54.68-.76,1.17c-.23.49-.41,1.04-.54,1.64s-.21,1.2-.21,1.81c0,1.21.29,1.82.88,1.82Z"/>
      <path class="cls-6" d="M40.4,49.49c-.13,0-.18-.06-.15-.19l1.31-5.75c.05-.21.05-.38.02-.5s-.12-.18-.25-.18c-.17,0-.35.13-.54.38-.2.25-.42.74-.67,1.45-.04.12-.1.19-.19.19-.14,0-.17-.09-.11-.26.2-.66.42-1.18.64-1.56.23-.37.45-.64.68-.79.23-.15.44-.23.63-.23.3,0,.52.12.65.35.13.24.13.62.01,1.16l-.15.68c0,.07,0,.11.04.12.04,0,.07-.01.1-.07.35-.84.67-1.42.95-1.74.29-.33.61-.49.98-.49.25,0,.43.07.56.21.12.14.19.33.19.57s-.05.43-.17.58c-.11.14-.25.22-.43.22-.15,0-.25-.04-.32-.12s-.11-.17-.14-.27-.07-.19-.1-.27c-.04-.08-.1-.12-.18-.12-.14,0-.32.18-.54.55s-.46.86-.71,1.48-.5,1.31-.73,2.08-.44,1.56-.61,2.36c-.03.11-.09.16-.19.16h-.57Z"/>
    </g>
    <path class="cls-5" d="M133.82,78.66c3.01-6.85-.82-16.23-9.46-25.87-8.64-9.64-22.09-19.52-38.31-27.35-16.21-7.84-32.11-12.14-44.7-12.77-12.6-.63-21.87,2.42-24.88,9.28-3.01,6.85.81,16.23,9.46,25.87,8.64,9.64,22.09,19.52,38.31,27.35,16.21,7.84,32.11,12.14,44.7,12.77,12.6.63,21.87-2.42,24.88-9.28Z"/>
    <path class="cls-3" d="M115.26,45.4c.6,1.02,1.12,2.27,1.66,3.89.55-1.62,1.06-2.88,1.66-3.89,1.43.3,2.98.96,4.94,2.01-.92-1.99-1.53-3.58-1.82-5.05.98-.56,2.19-1.04,3.71-1.56-1.6-.54-2.84-1.05-3.85-1.64.21-1.71.86-3.52,1.97-5.91-2.18,1.15-3.84,1.85-5.4,2.09-.41-.85-.8-1.84-1.2-3.03-.4,1.19-.79,2.19-1.2,3.03-1.56-.24-3.23-.93-5.4-2.09,1.1,2.39,1.76,4.2,1.97,5.91-1.01.59-2.26,1.1-3.85,1.64,1.52.51,2.73,1,3.71,1.56-.3,1.46-.9,3.06-1.82,5.05,1.96-1.04,3.51-1.71,4.94-2.01Z"/>
    <path class="cls-1" d="M82.67,13.92c0,2-1.69,3.63-3.76,3.63s-3.76-1.63-3.76-3.63,1.69-3.63,3.76-3.63,3.76,1.63,3.76,3.63Z"/>
    <path class="cls-2" d="M39.84,17.84c.47-6.32-.41-8.48-5.16-12.68,6.32.47,8.48-.41,12.68-5.16-.47,6.32.41,8.48,5.16,12.68-6.32-.47-8.48.41-12.68,5.16Z"/>
    <line class="cls-4" x1="93.64" y1="85.58" x2="88.42" y2="78.45"/>
    <line class="cls-4" x1="93.64" y1="85.78" x2="84.54" y2="88.6"/>
    <path class="cls-5" d="M127.14,20.41c3.08,6.98-.83,16.53-9.68,26.35-8.84,9.81-22.61,19.88-39.2,27.86-16.59,7.98-32.86,12.36-45.74,13-12.89.64-22.38-2.47-25.46-9.45-3.08-6.98.83-16.53,9.68-26.35,8.84-9.81,22.61-19.88,39.2-27.86,16.59-7.98,32.86-12.36,45.74-13,12.89-.64,22.38,2.47,25.46,9.45Z"/>
  </g>
</svg>